<?xml version="1.0" encoding="UTF-8"?>
<svg version="1.1" xmlns="http://www.w3.org/2000/svg" width="512" height="512">
<path d="M0 0 C0.8773732 -0.00287018 1.7547464 -0.00574036 2.65870667 -0.00869751 C4.50335338 -0.01072735 6.34802214 -0.00527356 8.19262695 0.00732422 C10.99284759 0.02337412 13.79162088 0.00744876 16.59179688 -0.01171875 C18.39453439 -0.00973575 20.19727102 -0.0058909 22 0 C22.82527695 -0.00607269 23.65055389 -0.01214539 24.50083923 -0.0184021 C31.09886794 0.06014536 37.66545449 1.03990076 42.90625 5.30078125 C43.43347656 5.97238281 43.96070313 6.64398438 44.50390625 7.3359375 C45.04917969 8.00496094 45.59445312 8.67398438 46.15625 9.36328125 C48.88622519 13.30321775 49.88311869 16.48339219 50.41796875 21.265625 C50.546875 22.39871094 50.67578125 23.53179687 50.80859375 24.69921875 C50.93492187 25.87871094 51.06125 27.05820312 51.19140625 28.2734375 C51.3925 30.03107422 51.3925 30.03107422 51.59765625 31.82421875 C52.17896537 37.05006908 52.64007131 42.1348232 52.56640625 47.3984375 C53.35015625 47.6046875 54.13390625 47.8109375 54.94140625 48.0234375 C59.07846819 49.59266789 62.56052846 51.71118094 66.296875 54.05859375 C68.60355126 55.52747316 68.60355126 55.52747316 71.56640625 56.3984375 C74.25491416 55.52542021 74.25491416 55.52542021 77.1875 54.125 C78.83782227 53.3825 78.83782227 53.3825 80.52148438 52.625 C81.67068359 52.09648437 82.81988281 51.56796875 84.00390625 51.0234375 C86.27219287 49.99205 88.54167667 48.96329029 90.8125 47.9375 C91.81982178 47.47553223 92.82714355 47.01356445 93.86499023 46.53759766 C99.97707659 43.96019188 106.16589012 43.45862076 112.56640625 45.3359375 C121.71707309 49.33335279 126.73480212 59.54111491 131.25390625 67.8984375 C131.79595703 68.87941406 132.33800781 69.86039062 132.89648438 70.87109375 C133.9599846 72.7979663 135.01724064 74.728301 136.06762695 76.66235352 C137.04049498 78.43836458 138.03033606 80.20522182 139.03979492 81.96069336 C139.71425659 83.13450562 139.71425659 83.13450562 140.40234375 84.33203125 C140.79856934 85.01064209 141.19479492 85.68925293 141.60302734 86.38842773 C144.14284763 91.687551 144.16841532 97.75812063 142.42114258 103.31396484 C139.36387798 110.76981321 133.46994473 115.38691418 126.94140625 119.7109375 C125.44905946 120.72763081 123.95686687 121.74455051 122.46484375 122.76171875 C121.81177246 123.19782471 121.15870117 123.63393066 120.48583984 124.08325195 C119.10584197 125.02881906 117.76311954 126.02964424 116.44775391 127.06323242 C114.56640625 128.3984375 114.56640625 128.3984375 112.56640625 128.3984375 C111.00576438 141.10170129 111.00576438 141.10170129 115.25146484 152.60351562 C119.48365082 156.4268942 124.28808005 159.18944073 129.24243164 161.96777344 C135.81808754 166.01581877 141.17880223 170.73876125 143.0625 178.421875 C144.92720575 189.37942423 139.22231561 198.39654795 133.75390625 207.4609375 C133.14998047 208.48509766 132.54605469 209.50925781 131.92382812 210.56445312 C118.90256132 232.50017169 118.90256132 232.50017169 109.55859375 234.91796875 C98.63077229 236.43012117 89.12109331 231.00612092 79.5390625 226.36328125 C78.69472656 225.96753906 77.85039062 225.57179688 76.98046875 225.1640625 C75.8505249 224.61927246 75.8505249 224.61927246 74.69775391 224.06347656 C72.17357986 223.27586487 71.03926064 223.56494339 68.56640625 224.3984375 C67.40109375 224.63691406 66.23578125 224.87539063 65.03515625 225.12109375 C60.25608715 226.55110792 56.49301873 228.21898812 53.56640625 232.3984375 C51.59852688 239.02975113 51.08143391 245.83769981 50.66601562 252.71899414 C50.0839079 262.14961647 49.02550629 268.16229246 42.06640625 274.7734375 C36.11859821 278.63951272 31.00412733 278.71859994 24.078125 278.734375 C23.06095901 278.7410318 22.04379303 278.7476886 20.99580383 278.75454712 C18.84658614 278.7646575 16.69733715 278.76936464 14.5480957 278.76904297 C11.27567219 278.77340846 8.00460628 278.80972502 4.73242188 278.84765625 C2.6393275 278.85352641 0.54622676 278.85749447 -1.546875 278.859375 C-2.51796707 278.87374603 -3.48905914 278.88811707 -4.48957825 278.90292358 C-11.60498675 278.85555136 -17.29128933 277.51647703 -22.45703125 272.390625 C-28.45519609 262.9946558 -28.76461535 253.13232119 -29.73730469 242.26635742 C-29.81368164 241.42435791 -29.89005859 240.5823584 -29.96875 239.71484375 C-30.06748413 238.57704468 -30.06748413 238.57704468 -30.16821289 237.41625977 C-30.39505385 235.19768428 -30.39505385 235.19768428 -31.43359375 232.3984375 C-34.33802756 230.54901036 -34.33802756 230.54901036 -37.80859375 228.8359375 C-41.13481356 227.12120113 -44.31914828 225.47473448 -47.43359375 223.3984375 C-51.12422026 223.76249437 -54.10515085 225.03851754 -57.41796875 226.6484375 C-58.35382813 227.091875 -59.2896875 227.5353125 -60.25390625 227.9921875 C-62.1943417 228.92359652 -64.13189982 229.86102582 -66.06640625 230.8046875 C-73.75423975 234.42744739 -81.08736139 236.80367582 -89.4831543 234.22583008 C-98.51866736 230.39289057 -102.5164622 223.07554932 -107.05859375 214.7734375 C-108.0021875 213.10474609 -108.0021875 213.10474609 -108.96484375 211.40234375 C-110.82534863 208.08663069 -112.63931321 204.75040104 -114.43359375 201.3984375 C-115.01898926 200.31240234 -115.60438477 199.22636719 -116.20751953 198.10742188 C-116.75134277 197.06650391 -117.29516602 196.02558594 -117.85546875 194.953125 C-118.33854492 194.03257324 -118.82162109 193.11202148 -119.31933594 192.16357422 C-121.78715367 186.03944985 -121.53758887 179.25057933 -119.05859375 173.1484375 C-116.02184606 168.02392578 -111.19509877 164.81362852 -106.43359375 161.3984375 C-105.83498535 160.96644043 -105.23637695 160.53444336 -104.61962891 160.08935547 C-101.50561784 157.84330061 -98.38124272 155.61325433 -95.2421875 153.40234375 C-92.12986558 151.47330635 -92.12986558 151.47330635 -91.01855469 148.47167969 C-90.08930758 141.77540598 -89.31642143 134.92278485 -91.43359375 128.3984375 C-95.76586659 122.97014902 -102.05885807 120.03371221 -108.08227539 116.82788086 C-114.08763776 113.1770246 -118.53709147 108.20353392 -120.43359375 101.3984375 C-122.47613023 90.89162985 -118.04255276 83.50925159 -112.85449219 74.79443359 C-111.33924634 72.23934378 -109.87401189 69.65905754 -108.41015625 67.07421875 C-107.37866458 65.28509419 -106.34484653 63.49730866 -105.30859375 61.7109375 C-104.83067383 60.87369141 -104.35275391 60.03644531 -103.86035156 59.17382812 C-100.18207209 52.98911043 -96.13607971 48.16919166 -89.55859375 45.0234375 C-81.9602572 43.50377019 -76.05659572 44.41206492 -69.05859375 47.5859375 C-68.32543945 47.90038818 -67.59228516 48.21483887 -66.83691406 48.53881836 C-61.71067454 50.7546731 -56.67793258 53.15418993 -51.73046875 55.74609375 C-48.57146762 56.64329305 -47.32146748 55.90117723 -44.43359375 54.3984375 C-41.27881516 52.60843476 -38.18257233 50.73505834 -35.078125 48.859375 C-32.43359375 47.3984375 -32.43359375 47.3984375 -30.43359375 47.3984375 C-30.32869629 46.05265625 -30.32869629 46.05265625 -30.22167969 44.6796875 C-29.9515234 41.31619825 -29.66646614 37.9546389 -29.37158203 34.59326172 C-29.24752547 33.14486112 -29.1292377 31.69595334 -29.01708984 30.24658203 C-27.65156461 12.71227134 -27.65156461 12.71227134 -20.68359375 5.5859375 C-13.90769197 1.02523438 -7.97110287 -0.05851081 0 0 Z M-5.43359375 22.3984375 C-5.69914062 24.86699219 -5.9646875 27.33554687 -6.23828125 29.87890625 C-6.50137894 32.27859489 -6.76692875 34.67800039 -7.03271484 37.07739258 C-7.21561882 38.7405239 -7.39598644 40.40393626 -7.57373047 42.06762695 C-7.83018663 44.46384448 -8.09585424 46.85889135 -8.36328125 49.25390625 C-8.47904007 50.36357002 -8.47904007 50.36357002 -8.59713745 51.49565125 C-9.04379394 55.40917128 -9.55987701 58.90498505 -11.43359375 62.3984375 C-13.84331417 63.83357309 -16.07096413 64.97232813 -18.62109375 66.0859375 C-25.31982538 69.17356882 -31.27678648 72.73696696 -37.11987305 77.2487793 C-40.92183338 80.00356433 -44.04424648 81.21606034 -48.77661133 80.96289062 C-54.82199049 79.67860168 -60.31001818 76.63853034 -65.80859375 73.8984375 C-67.7119475 72.96577972 -69.61756053 72.03821271 -71.52627563 71.11657715 C-73.24412486 70.28475386 -74.95503683 69.43864878 -76.66552734 68.59179688 C-79.39035063 67.20049103 -79.39035063 67.20049103 -82.43359375 67.3984375 C-84.41519479 70.88215234 -86.39049742 74.36935424 -88.36010742 77.85986328 C-89.03059767 79.04605299 -89.70278167 80.23128701 -90.37670898 81.41552734 C-91.34676949 83.12082928 -92.31018457 84.82990602 -93.2734375 86.5390625 C-93.85472412 87.56547852 -94.43601074 88.59189453 -95.03491211 89.64941406 C-96.21188003 91.96267271 -96.96465278 93.86562641 -97.43359375 96.3984375 C-96.93021484 96.7608252 -96.42683594 97.12321289 -95.90820312 97.49658203 C-93.58275299 99.17139637 -91.25817012 100.84741065 -88.93359375 102.5234375 C-87.74636719 103.37808594 -87.74636719 103.37808594 -86.53515625 104.25 C-85.35566406 105.10078125 -85.35566406 105.10078125 -84.15234375 105.96875 C-82.97478516 106.81808105 -82.97478516 106.81808105 -81.7734375 107.68457031 C-78.82264527 109.84593941 -75.92750002 112.07626401 -73.04492188 114.32763672 C-71.47841908 115.58292967 -71.47841908 115.58292967 -69.43359375 115.3984375 C-67.71691543 119.7818642 -67.287013 122.92068747 -67.80859375 127.5859375 C-68.70836729 137.04427121 -68.52584995 145.93300933 -67.26171875 155.35546875 C-67.49737225 159.52760693 -68.73884768 161.21146228 -71.43359375 164.3984375 C-74.01779314 166.57161182 -76.75538667 168.45753451 -79.55859375 170.3359375 C-80.31325928 170.85446289 -81.0679248 171.37298828 -81.84545898 171.90722656 C-83.3460273 172.93771216 -84.84946368 173.96403575 -86.35595703 174.98583984 C-89.09003025 176.84475261 -91.79325622 178.74443 -94.49609375 180.6484375 C-95.80833339 181.56547685 -97.12070929 182.48232156 -98.43359375 183.3984375 C-97.94890625 184.24664062 -97.46421875 185.09484375 -96.96484375 185.96875 C-96.64467285 186.52925049 -96.32450195 187.08975098 -95.99462891 187.66723633 C-95.28146123 188.91486951 -94.56758252 190.1620965 -93.85302734 191.40893555 C-91.94907188 194.73356036 -90.05765669 198.06420064 -88.19140625 201.41015625 C-87.83369141 202.04743652 -87.47597656 202.6847168 -87.10742188 203.34130859 C-86.4168716 204.57227553 -85.73055419 205.80562816 -85.04882812 207.04150391 C-83.32881688 210.29138929 -83.32881688 210.29138929 -80.43359375 212.3984375 C-78.2890443 211.58176968 -76.18548528 210.65681414 -74.10546875 209.6875 C-73.47884338 209.39990814 -72.85221802 209.11231628 -72.206604 208.81600952 C-70.19540527 207.89258279 -68.18909102 206.95917611 -66.18359375 206.0234375 C-63.55715737 204.79891161 -60.92644449 203.58429886 -58.29296875 202.375 C-57.12217773 201.82924316 -55.95138672 201.28348633 -54.74511719 200.72119141 C-50.17439501 198.89546354 -46.93944481 197.93509871 -42.18359375 199.3984375 C-38.31186401 201.25887906 -34.99506278 203.8406559 -31.53515625 206.36328125 C-26.94842963 209.37295955 -22.07411372 211.79753516 -17.14697266 214.20166016 C-16.43718262 214.55921387 -15.72739258 214.91676758 -14.99609375 215.28515625 C-14.03896484 215.75248169 -14.03896484 215.75248169 -13.0625 216.22924805 C-10.88951636 217.78896308 -10.33658598 218.86259089 -9.43359375 221.3984375 C-8.99687952 224.09336264 -8.64410676 226.73453825 -8.36328125 229.4453125 C-8.27732697 230.21651428 -8.19137268 230.98771606 -8.10281372 231.7822876 C-7.8308929 234.23694437 -7.56960766 236.69259941 -7.30859375 239.1484375 C-7.12570109 240.81648327 -6.94211523 242.48445319 -6.7578125 244.15234375 C-6.30706263 248.23345746 -5.87072139 252.31575027 -5.43359375 256.3984375 C5.45640625 256.3984375 16.34640625 256.3984375 27.56640625 256.3984375 C28.90385093 247.70504711 30.05006553 239.2243349 30.68945312 230.48828125 C31.15020831 225.19997403 31.76495327 220.96713566 34.56640625 216.3984375 C37.02682322 214.6676207 39.64972396 213.61628757 42.44140625 212.5234375 C49.60358969 209.47487141 55.55839626 205.90259193 61.734375 201.18359375 C64.87626649 199.2031187 66.86781018 198.5577765 70.56640625 198.3984375 C79.48713554 200.59392109 88.06879481 205.43587301 96.29370117 209.45068359 C97.47089722 210.02230225 97.47089722 210.02230225 98.671875 210.60546875 C99.37465576 210.9506958 100.07743652 211.29592285 100.80151367 211.65161133 C102.55398627 212.52833828 102.55398627 212.52833828 104.56640625 212.3984375 C109.84640625 203.1584375 115.12640625 193.9184375 120.56640625 184.3984375 C117.86703427 181.69906552 115.77343516 179.69636166 112.73828125 177.59375 C112.02027344 177.09230469 111.30226563 176.59085938 110.5625 176.07421875 C109.82128906 175.56246094 109.08007812 175.05070313 108.31640625 174.5234375 C103.87388822 171.43813634 99.44129701 168.34299374 95.08203125 165.140625 C94.43008789 164.66222168 93.77814453 164.18381836 93.10644531 163.69091797 C91.56640625 162.3984375 91.56640625 162.3984375 90.56640625 160.3984375 C90.28064079 154.60318627 90.25260864 148.80675774 90.21630859 143.00512695 C90.19975181 141.06424975 90.17246537 139.12343344 90.13427734 137.18286133 C90.07947285 134.38330485 90.05762961 131.58517712 90.04296875 128.78515625 C90.02029938 127.92041183 89.99763 127.05566742 89.97427368 126.16471863 C89.98962901 121.77898259 90.09177339 119.99142051 92.91723633 116.46142578 C93.7914624 115.78063965 94.66568848 115.09985352 95.56640625 114.3984375 C96.52675781 113.60824219 97.48710937 112.81804687 98.4765625 112.00390625 C105.66137462 106.49287935 112.95237225 101.3098324 120.56640625 96.3984375 C115.76206366 86.37265505 110.40633629 76.85356233 104.56640625 67.3984375 C96.56324015 69.86662705 89.23042401 73.27003365 81.73828125 76.99023438 C76.00633092 79.70810747 70.95291656 81.74570109 64.56640625 80.3984375 C61.265625 78.640625 61.265625 78.640625 58.25390625 76.2734375 C53.14913137 72.4221213 48.03274267 69.41696367 42.22265625 66.6875 C36.56379491 63.94128788 34.08256643 62.34002447 31.56640625 56.3984375 C30.96630859 53.02685547 30.96630859 53.02685547 30.65234375 49.390625 C30.59237213 48.74272003 30.53240051 48.09481506 30.47061157 47.42727661 C30.28281912 45.37682531 30.11139983 43.32543389 29.94140625 41.2734375 C29.70397722 38.56204871 29.4595825 35.85137269 29.21484375 33.140625 C29.11349121 31.9429248 29.01213867 30.74522461 28.90771484 29.51123047 C28.61808872 26.22167244 28.61808872 26.22167244 27.56640625 22.3984375 C16.67640625 22.3984375 5.78640625 22.3984375 -5.43359375 22.3984375 Z " fill="#000000" transform="translate(351.43359375,233.6015625)"/>
<path d="M0 0 C3.4823715 2.85935711 6.7747485 5.85522503 10 9 C10.86625 9.825 11.7325 10.65 12.625 11.5 C13.40875 12.325 14.1925 13.15 15 14 C15.59167969 14.6084375 16.18335938 15.216875 16.79296875 15.84375 C37.52478707 37.97907633 43.86807435 66.59400275 43.12744141 96.08300781 C41.91633298 123.80393391 27.35433152 148.5073074 7.6875 167.25 C-13.71917247 185.98463392 -41.37523258 195.48052703 -69.83007812 194.14794922 C-93.13833427 192.55874994 -115.35341916 184.53730939 -133 169 C-133.80695313 168.33613281 -134.61390625 167.67226562 -135.4453125 166.98828125 C-155.17243857 150.26042043 -168.77183711 124.86962652 -171 99 C-173.01790673 67.91863103 -165.41381059 41.53199702 -146 17 C-145.49726563 16.34128906 -144.99453125 15.68257812 -144.4765625 15.00390625 C-140.07832264 9.49975058 -134.55451416 5.28208088 -129 1 C-128.19433594 0.37867187 -127.38867188 -0.24265625 -126.55859375 -0.8828125 C-115.18501119 -9.23967876 -102.60549883 -14.54295831 -89 -18 C-88.27208252 -18.18618896 -87.54416504 -18.37237793 -86.79418945 -18.56420898 C-57.01508054 -25.37391203 -24.33599726 -18.11275475 0 0 Z M-126.46630859 28.55908203 C-142.81936314 46.94733005 -150.34872884 69.44813987 -149 94 C-146.29070799 117.12082251 -135.59818012 137.5330651 -117.8359375 152.80859375 C-99.62808656 166.87829675 -77.4910169 173.80960717 -54.46875 171.5390625 C-31.12403032 167.91116687 -10.23297139 156.65167763 4.25 137.8125 C18.28589917 117.25575601 23.99186699 94.1033658 19.48046875 69.40234375 C17.0458033 57.50911073 12.12578573 46.83476213 5 37 C4.35546875 36.09765625 3.7109375 35.1953125 3.046875 34.265625 C-9.79841809 17.42401851 -29.47280815 6.11641001 -50.2734375 2.41796875 C-78.5911062 -0.75812197 -106.5856769 7.42060151 -126.46630859 28.55908203 Z " fill="#000000" transform="translate(256,20)"/>
<path d="M0 0 C3.23382131 0.00516133 6.46756786 -0.00222198 9.70138144 -0.00947207 C17.32444712 -0.02636255 24.94731197 -0.02300668 32.57037258 -0.00618243 C40.42167464 0.01082119 48.27242402 -0.00523228 56.12366605 -0.03740531 C62.89265005 -0.06408697 69.66146181 -0.07138387 76.43049312 -0.06289023 C80.46196842 -0.05796822 84.4931096 -0.06014056 88.52454281 -0.08067775 C92.30391716 -0.09901918 96.08249001 -0.09309647 99.86182117 -0.06847835 C101.24653059 -0.06346999 102.6313011 -0.0669611 104.01596165 -0.0796268 C115.78104694 -0.17873571 115.78104694 -0.17873571 119.05688381 2.98467755 C121.81374775 7.17640007 122.45674493 10.57890633 121.7573843 15.57023358 C119.58828331 19.13375664 117.6014087 21.03955274 113.7573843 22.57023358 C111.10783672 22.82077336 111.10783672 22.82077336 108.03112698 22.82178998 C106.86235516 22.82717282 105.69358334 22.83255567 104.48939419 22.83810163 C102.57098972 22.83191564 102.57098972 22.83191564 100.61382961 22.82560468 C99.25005287 22.82835562 97.88627773 22.83203614 96.52250576 22.83657575 C93.58527621 22.84468636 90.64812279 22.84685638 87.71088314 22.84462857 C83.05182121 22.84178909 78.3929102 22.85617532 73.73388577 22.87360883 C60.48474338 22.92056199 47.23561009 22.94454068 33.98638821 22.95109296 C26.66876641 22.95486454 19.35131455 22.9730678 12.03376555 23.00618732 C8.16889477 23.02296971 4.30433281 23.03230448 0.43942928 23.02324796 C-25.26931103 22.96834523 -47.15122109 24.46629708 -67.2426157 42.57023358 C-67.87683445 43.1232414 -68.5110532 43.67624921 -69.1644907 44.24601483 C-74.26850476 48.9773907 -77.76491458 54.58224941 -81.2426157 60.57023358 C-81.94064304 61.7419914 -81.94064304 61.7419914 -82.65277195 62.93742108 C-90.1936555 76.63553982 -90.84486281 91.27997517 -90.8519907 106.50773358 C-90.86701253 108.36818086 -90.88374788 110.22861501 -90.90210056 112.08903241 C-90.94533767 116.92872047 -90.965675 121.76822884 -90.98083591 126.60807538 C-91.0005664 131.56952597 -91.04251709 136.53078684 -91.08245945 141.49210858 C-91.15728734 151.18475775 -91.20786391 160.87736351 -91.2426157 170.57023358 C-90.41232003 170.5674682 -89.58202436 170.56470283 -88.72656822 170.56185365 C-68.52944955 170.49561857 -48.33234958 170.44596505 -28.13514519 170.41479707 C-18.36795052 170.39932408 -8.60082831 170.3782263 1.16631985 170.34391522 C9.67874808 170.3140261 18.19112384 170.29466172 26.70360309 170.2879681 C31.21146631 170.28405502 35.71917938 170.27484975 40.22699451 170.25304341 C44.46965631 170.23268596 48.71210605 170.22639828 52.95481205 170.23091054 C54.51206648 170.23008501 56.06932798 170.22411487 57.62654018 170.21261716 C59.75327563 170.1976842 61.87921116 170.2012823 64.00596523 170.20947003 C65.79101735 170.20532197 65.79101735 170.20532197 67.61213112 170.2010901 C71.80652426 170.69336618 74.27151539 172.41925417 77.54254055 174.95304608 C79.67129998 177.78682873 79.21544117 180.70410423 79.12066555 184.12101483 C78.61581444 187.52468842 77.27056922 189.27880027 74.7573843 191.57023358 C71.76887361 193.06448893 69.05184306 192.70660035 65.7170248 192.7174046 C64.98380436 192.72108129 64.25058391 192.72475798 63.49514467 192.72854608 C61.02550336 192.73960475 58.5559041 192.74343043 56.08624172 192.74723554 C54.32068147 192.7534985 52.55512255 192.76014515 50.78956509 192.76714826 C45.98372054 192.7845726 41.17788594 192.79511376 36.37201762 192.80335379 C33.37119704 192.80850052 30.37037958 192.81457638 27.3695612 192.82086492 C17.98563554 192.83992033 8.60171777 192.85415116 -0.78222352 192.86247689 C-11.62371274 192.87225395 -22.46499804 192.89858424 -33.30641538 192.93897778 C-41.68013937 192.96910926 -50.0538048 192.98394291 -58.42758197 192.9872579 C-63.43175652 192.98961163 -68.4357133 192.99861404 -73.43982983 193.02371907 C-78.14712778 193.04695317 -82.85406386 193.05125188 -87.56140423 193.04095769 C-89.28959193 193.04046109 -91.01779717 193.04681793 -92.74593067 193.06051373 C-95.10482499 193.07816316 -97.46241084 193.07116189 -99.82130527 193.05798078 C-100.50574752 193.06895002 -101.19018977 193.07991927 -101.89537269 193.09122092 C-106.58828053 193.02787776 -108.93980273 191.8665118 -112.2426157 188.57023358 C-113.38122676 186.29301145 -113.37523508 185.02589644 -113.38978672 182.4958775 C-113.39694202 181.64262387 -113.40409733 180.78937024 -113.41146946 179.91026044 C-113.41415836 178.97168195 -113.41684727 178.03310346 -113.41961765 177.06608319 C-113.42947445 175.58504857 -113.42947445 175.58504857 -113.43953037 174.07409406 C-113.4593135 170.79025439 -113.47094485 167.50646084 -113.48089695 164.22257733 C-113.48497248 163.09824355 -113.489048 161.97390977 -113.49324703 160.81550527 C-113.51414151 154.85020497 -113.52842153 148.88492783 -113.53778172 142.91959882 C-113.54877781 136.79376302 -113.58308865 130.66829737 -113.62295341 124.54259133 C-113.6492865 119.80578749 -113.65748889 115.06906896 -113.66106319 110.33219838 C-113.66589603 108.07707052 -113.67741405 105.82194561 -113.69610119 103.56689 C-113.91587012 75.25790406 -107.40969635 51.09229059 -87.5785532 29.94132733 C-62.31978231 4.30240771 -34.30280239 -0.07965096 0 0 Z " fill="#000000" transform="translate(113.24261569976807,255.42976641654968)"/>
<path d="M0 0 C0.89976562 -0.020625 1.79953125 -0.04125 2.7265625 -0.0625 C17.62751509 -0.14813766 29.688973 6.16157627 40.171875 16.421875 C51.86201042 28.65259472 54.37901888 42.65461166 54.15234375 58.95703125 C53.6866595 72.10971515 47.08349807 83.55920899 38.2734375 93.078125 C31.37326593 99.32648883 22.95941172 104.10309801 13.875 106.25 C12.76125 106.52070313 12.76125 106.52070313 11.625 106.796875 C-3.84673964 109.34619574 -19.2020584 106.28858921 -32.125 97.25 C-38.87146466 91.50301158 -44.5435808 85.44621232 -48.125 77.25 C-48.69154297 75.96029297 -48.69154297 75.96029297 -49.26953125 74.64453125 C-55.19039455 60.48048725 -54.67043788 45.38049532 -48.90625 31.265625 C-42.2054566 16.59833278 -31.23578598 7.62970474 -16.31640625 1.9765625 C-10.8093576 0.1506961 -5.77210853 0.03224642 0 0 Z M-15.125 26.25 C-15.82367188 26.6625 -16.52234375 27.075 -17.2421875 27.5 C-24.05419056 32.02419826 -27.64200047 38.34027396 -30.5 45.875 C-32.15522275 54.81320284 -30.74838162 62.47169776 -26.375 70.4375 C-20.37172633 77.94159209 -14.86988255 82.27588804 -5.5625 85 C4.85075135 86.06802578 13.84003789 83.72388603 22.08984375 77.015625 C28.88153568 70.29824042 31.86316842 62.91487374 32.25 53.4375 C32.03678766 43.93770564 28.64868979 37.10027623 22.16796875 30.23046875 C14.79266736 23.86031917 6.75130752 21.87755353 -2.76953125 21.97265625 C-7.57298651 22.36968224 -11.04021226 23.76495803 -15.125 26.25 Z " fill="#000000" transform="translate(362.125,319.75)"/>
</svg>
