<?xml version="1.0" encoding="UTF-8"?>
<svg version="1.1" xmlns="http://www.w3.org/2000/svg" width="1024" height="1024">
<path d="M0 0 C337.92 0 675.84 0 1024 0 C1024 337.92 1024 675.84 1024 1024 C686.08 1024 348.16 1024 0 1024 C0 686.08 0 348.16 0 0 Z " fill="#F1BE2B" transform="translate(0,0)"/>
<path d="M0 0 C2.11082432 0.00259635 4.22163299 0.00193679 6.3324585 0.00118637 C27.78086508 0.01001039 48.91481702 0.94872482 70.18304443 3.85607529 C73.94572079 4.35946228 77.70950545 4.79527469 81.4833374 5.20568466 C83.66183627 5.44946458 85.84023123 5.69417594 88.01849365 5.94005966 C88.94855225 6.04229843 89.87861084 6.1445372 90.83685303 6.24987411 C97.61496745 7.08689184 103.80510656 8.20282311 108.89349365 13.06505966 C113.99178562 20.78533035 115.14443319 27.73979802 113.42010498 36.88122177 C112.51484049 40.91187064 111.5641323 44.92785483 110.58099365 48.94005966 C107.58617713 60.51055765 107.58617713 60.51055765 107.08099365 72.37755966 C111.1743327 72.45164553 115.26741298 72.50613006 119.36126709 72.54235458 C120.75423987 72.55745324 122.14716503 72.57793411 123.53997803 72.60387802 C125.5404225 72.64021088 127.54121192 72.65567159 129.54193115 72.67052841 C130.74639893 72.68623886 131.9508667 72.70194931 133.1918335 72.71813583 C134.14525635 72.6057457 135.0986792 72.49335556 136.08099365 72.37755966 C138.3122427 69.03068608 138.7644779 66.69962078 139.52630615 62.76818466 C139.80084962 61.44235271 140.07694213 60.11684076 140.35443115 58.79162216 C140.7835937 56.716196 141.2034948 54.64079733 141.59661865 52.55822372 C143.08637552 44.74817333 144.35015262 38.39591047 151.12518311 33.53112411 C158.21156604 29.35147621 165.41060373 29.17500417 173.3427124 31.21740341 C180.58202935 33.7145894 187.54301099 36.85428532 194.50897217 40.02111435 C200.18305433 42.58621488 205.92151637 44.94554839 211.70452881 47.25378036 C242.96855498 59.74296645 272.08827404 75.31412776 300.2177124 93.74084091 C301.07453613 94.30142197 301.93135986 94.86200302 302.81414795 95.43957138 C304.51873766 96.55509748 306.22205087 97.67257685 307.92401123 98.79211044 C312.81074763 101.98358654 317.76063511 104.91642922 322.89349365 107.69005966 C330.05657625 111.68923652 335.5778956 116.36305306 338.08099365 124.37755966 C338.33363134 126.91274943 338.46181426 129.27960453 338.45599365 131.81505966 C338.45357666 132.97038193 338.45357666 132.97038193 338.45111084 134.14904404 C338.24020583 144.89279327 336.46149786 155.4934209 334.93809509 166.11138535 C334.21244302 171.24960586 333.60082445 176.39577399 333.0302124 181.55334091 C332.94488251 182.31734207 332.85955261 183.08134323 332.77163696 183.86849594 C332.43722639 186.87221311 332.10379361 189.87587817 331.78887939 192.88171005 C331.03361143 200.07626375 330.13581306 206.79468641 327.63885498 213.61852646 C326.77165442 216.35295973 326.87969412 217.76603894 328.08099365 220.37755966 C329.99503344 222.73143427 332.12602467 224.79803749 334.33099365 226.87755966 C335.19144287 227.71093857 335.19144287 227.71093857 336.0692749 228.56115341 C337.73401751 230.17280628 339.40707079 231.77545275 341.08099365 233.37755966 C343.96512979 236.17169439 346.61607098 238.79337936 348.76849365 242.19005966 C349.36210693 243.09691513 349.36210693 243.09691513 349.9677124 244.02209091 C352.97622438 250.38746889 353.64875917 257.64017094 354.5614624 264.54943466 C354.83741854 266.57288383 355.11346411 268.5963208 355.3895874 270.61974716 C355.53251221 271.67903427 355.67543701 272.73832138 355.82269287 273.8297081 C358.19541172 291.38211019 360.73006858 308.89653232 363.58099365 326.37755966 C366.35154042 343.38258171 368.8060963 360.41856093 371.15023804 377.48730087 C372.85727033 389.89979824 374.63887751 402.27993732 376.76849365 414.62755966 C378.52415412 424.8124763 380.02220182 434.99957649 381.34466553 445.24938583 C383.19545672 459.4970032 385.23684421 473.71727784 387.26849365 487.94005966 C387.53915146 489.8414772 387.53915146 489.8414772 387.8152771 491.78130722 C388.33325532 495.41908841 388.85325008 499.05657518 389.3739624 502.69396591 C389.53109711 503.79790192 389.68823181 504.90183792 389.85012817 506.03922653 C389.99745392 507.06425781 390.14477966 508.08928909 390.29656982 509.14538193 C390.48832039 510.4852491 390.48832039 510.4852491 390.6839447 511.8521843 C390.95342011 513.56614567 391.26381363 515.27407353 391.61048889 516.97410202 C393.29767079 525.59265504 391.16435944 532.53881236 386.50286865 539.85412216 C383.13750445 543.36061454 379.35855112 545.31659492 375.08099365 547.56505966 C374.15633301 548.06046249 373.23167236 548.55586533 372.2789917 549.06628036 C362.56355199 554.21959319 352.72645402 559.1408845 342.89349365 564.06505966 C342.08388184 564.47050003 341.27427002 564.8759404 340.44012451 565.29366684 C338.1200515 566.45349752 335.7982383 567.60974588 333.4755249 568.76427841 C332.773293 569.11478256 332.0710611 569.46528671 331.34754944 569.8264122 C324.68119076 573.12745561 319.49275207 574.12299514 312.08099365 573.37755966 C308.76849365 571.81505966 308.76849365 571.81505966 306.08099365 569.37755966 C305.5822876 568.94016464 305.08358154 568.50276962 304.56976318 568.05212021 C299.18549596 562.68744143 298.85120586 557.08537602 298.26849365 549.75255966 C298.05479287 547.53109525 297.83998986 545.30973653 297.6239624 543.08849716 C297.5417041 542.11187119 297.4594458 541.13524521 297.37469482 540.12902451 C297.09366636 537.49628072 296.64333532 534.96332978 296.08099365 532.37755966 C291.43046493 532.10823445 291.43046493 532.10823445 287.08099365 533.37755966 C286.30673431 535.98414365 285.65390992 538.5416235 285.05755615 541.19005966 C284.87010834 541.99177597 284.68266052 542.79349228 284.48953247 543.61950302 C283.88718354 546.20377526 283.29640505 548.79053681 282.70599365 551.37755966 C282.31613726 553.06002961 281.92552038 554.74232354 281.53411865 556.42443466 C280.18618016 562.22739542 278.84624049 568.03220154 277.51779175 573.83965683 C276.9834194 576.17334289 276.44470323 578.5059899 275.9052124 580.83849716 C275.74747345 581.53330185 275.5897345 582.22810654 275.42721558 582.94396591 C272.840312 594.07893626 267.85832908 600.49704424 258.19720459 606.61486435 C244.56622437 614.92469792 229.79431857 621.25700851 215.08099365 627.37755966 C215.76652041 632.29978479 215.76652041 632.29978479 216.64349365 637.19005966 C217.76230173 645.34137565 217.67991961 652.27492043 213.08099365 659.37755966 C209.00459418 664.23520457 204.30972805 666.60989632 198.70599365 669.31505966 C197.76352783 669.77743027 196.82106201 670.23980087 195.85003662 670.71618271 C183.5105627 676.71012118 171.01918322 682.38776719 158.45648193 687.89660263 C156.43342314 688.78419663 154.41271916 689.67723159 152.39691162 690.58117294 C142.23182334 695.10742412 131.12762135 698.40739492 120.2177124 694.29943466 C114.81443131 691.08045869 112.37296793 687.13743031 110.08099365 681.37755966 C109.38884058 678.3347787 109.09823512 675.31305498 108.8505249 672.20568466 C108.76977219 671.36084518 108.68901947 670.51600571 108.6058197 669.64556503 C108.35331886 666.97403286 108.12261357 664.30118871 107.89349365 661.62755966 C107.64912644 658.9402426 107.40027317 656.25339029 107.14903259 653.56670761 C106.99488636 651.90216348 106.84551434 650.23716842 106.70155334 648.57171249 C106.39104567 645.07920603 105.99436611 641.76144008 105.08099365 638.37755966 C99.41120568 637.9865398 94.27194807 638.49488065 88.70599365 639.69005966 C86.93095459 640.05550888 86.93095459 640.05550888 85.12005615 640.42834091 C81.69314841 642.62631901 81.45378393 643.20103332 80.35443115 646.94396591 C79.88797529 649.07975986 79.46884901 651.22610316 79.08099365 653.37755966 C78.96250061 654.01871719 78.84400757 654.65987473 78.72192383 655.32046127 C77.76588635 660.53592217 76.91715174 665.76677287 76.08099365 671.00255966 C75.83155862 672.54301583 75.58156116 674.08338104 75.33099365 675.62365341 C75.1454895 676.76492691 75.1454895 676.76492691 74.95623779 677.92925644 C74.58226251 680.22134532 74.20476838 682.51283666 73.8270874 684.80431747 C73.31890264 687.88927654 72.83596527 690.97697155 72.3661499 694.06798935 C72.12571915 695.5748979 71.88485051 697.08173666 71.64349365 698.58849716 C71.49654053 699.61023529 71.49654053 699.61023529 71.34661865 700.65261459 C70.29332627 707.0480148 67.74671293 712.72206635 62.39349365 716.62755966 C61.79150146 717.08646591 61.18950928 717.54537216 60.5692749 718.01818466 C52.66592157 722.3358722 43.80441866 723.47468475 35.01849365 724.87755966 C33.68767876 725.0940043 32.35686827 725.31047603 31.02606201 725.52697372 C22.7499269 726.85937318 14.45954468 728.07052067 6.14349365 729.12755966 C5.24171387 729.24293076 4.33993408 729.35830185 3.41082764 729.47716904 C-9.68595517 731.05812499 -22.79827113 731.58759083 -35.98150635 731.56505966 C-36.70154846 731.56412308 -37.42159058 731.56318649 -38.16345215 731.56222153 C-50.51621 731.52767288 -62.66248162 730.96763528 -74.91900635 729.37755966 C-75.57677063 729.29272324 -76.23453491 729.20788681 -76.91223145 729.12047958 C-82.31412195 728.42066669 -87.71108062 727.68795916 -93.10650635 726.94005966 C-93.86066833 726.83682388 -94.61483032 726.7335881 -95.3918457 726.62722397 C-105.54649796 725.22374784 -115.48713165 723.61498698 -125.04400635 719.75255966 C-130.53264679 717.84474347 -136.20592957 717.96624811 -141.9541626 717.88146591 C-155.07324276 717.0072378 -168.07454396 711.83941589 -180.41900635 707.62755966 C-181.99948335 707.09238707 -183.58013345 706.5577254 -185.16094971 706.02355576 C-187.52753133 705.22386234 -189.89397264 704.42379038 -192.25956726 703.62118149 C-196.89594985 702.05031717 -201.54225517 700.51943341 -206.2041626 699.02599716 C-207.27924072 698.67891708 -208.35431885 698.33183701 -209.4619751 697.97423935 C-211.38768926 697.35454802 -213.31586268 696.74241254 -215.24713135 696.14025497 C-223.26169274 693.53761901 -233.62102816 690.07810392 -237.91900635 682.37755966 C-243.31599654 670.49471284 -240.48132548 657.13329072 -239.30963135 644.56505966 C-239.13958022 642.71026684 -238.96980655 640.85544856 -238.80029297 639.00060654 C-238.44340016 635.10693606 -238.08325353 631.21358408 -237.72076416 627.32043076 C-237.26661206 622.44029633 -236.82028136 617.55948644 -236.37629414 612.67841816 C-233.68432992 583.13515432 -230.52788558 553.68601755 -226.5322876 524.28771591 C-225.53796551 516.62958304 -224.77538198 508.98167218 -224.79400635 501.25255966 C-224.79142822 500.15685654 -224.7888501 499.06115341 -224.78619385 497.93224716 C-224.62976406 495.44365467 -224.62976406 495.44365467 -225.91900635 494.37755966 C-232.38058397 494.54786877 -238.67106048 495.83276369 -244.9307251 497.34630966 C-245.76523193 497.54247375 -246.59973877 497.73863785 -247.45953369 497.94074631 C-249.24774701 498.36190187 -251.03528109 498.78595038 -252.82217407 499.21267319 C-255.65950774 499.89021616 -258.49856674 500.56004816 -261.3381958 501.22790146 C-265.26547752 502.15203657 -269.19210561 503.07887071 -273.1182251 504.00793076 C-286.63911182 507.20427333 -300.17544347 510.33395342 -313.722229 513.41857529 C-316.36961122 514.02182395 -319.01456036 514.63331767 -321.65875244 515.25060654 C-352.63399511 522.46831014 -352.63399511 522.46831014 -363.60650635 517.87755966 C-368.60666707 514.70891849 -371.69459181 509.82638874 -374.29400635 504.62755966 C-375.80598806 496.76525474 -374.92248347 488.93556646 -374.0166626 481.04162216 C-372.70550037 469.03115833 -371.89151119 456.99467063 -371.10650635 444.94005966 C-371.02418762 443.68942734 -370.9418689 442.43879501 -370.85705566 441.15026474 C-369.0569893 413.57452617 -367.66601473 385.97737142 -366.29400635 358.37755966 C-366.2415765 357.32427097 -366.18914665 356.27098228 -366.13512802 355.18577576 C-364.70931547 326.51149451 -363.36798334 297.83385481 -362.12646484 269.15099716 C-361.99916427 266.21209962 -361.87027349 263.27328693 -361.73840332 260.33459091 C-361.38798119 252.51669281 -361.07034845 244.69843425 -360.79400635 236.87755966 C-360.75031921 235.67064468 -360.70663208 234.46372971 -360.66162109 233.22024155 C-359.97221396 213.29555737 -359.87212003 193.38748394 -359.93463135 173.45177841 C-359.93790058 172.22780979 -359.94116982 171.00384117 -359.94453812 169.74278259 C-359.97804525 157.31005463 -360.02766173 144.877883 -360.1388092 132.4455862 C-360.17734419 127.74154358 -360.20002537 123.03750533 -360.21950531 118.33334923 C-360.23257579 116.12322856 -360.25294947 113.9131374 -360.28110504 111.70315742 C-360.31963797 108.64154863 -360.3331886 105.58073636 -360.34136963 102.51891708 C-360.35888716 101.6344767 -360.37640469 100.75003632 -360.39445305 99.83879471 C-360.37015292 91.99879248 -358.01148139 85.63935899 -353.79400635 79.06505966 C-347.0274571 72.73980711 -338.59050567 70.50562715 -329.73150635 68.62755966 C-320.18576974 66.46850678 -310.80083997 63.97466384 -301.41900635 61.19005966 C-246.67289868 45.03537139 -190.8456686 31.08690285 -134.66851807 20.88146591 C-132.08304876 20.40762391 -129.50306832 19.91063621 -126.9229126 19.40880966 C-103.86011857 15.06385559 -103.86011857 15.06385559 -93.91900635 18.37755966 C-90.67690116 19.21543087 -90.67690116 19.21543087 -86.91900635 18.37755966 C-84.45489449 16.32913277 -82.35768446 14.1288826 -80.2276001 11.73693466 C-63.93775856 -4.91122827 -21.27472941 -0.02749682 0 0 Z " fill="#FAF3DE" transform="translate(512.9190063476563,139.62244033813477)"/>
<path d="M0 0 C5.80519605 11.6103921 -3.05258771 37.36826105 -6.2890625 49.171875 C-7 51 -7 51 -9 53 C-13.52819962 54.28138415 -18.27781702 54.36224209 -22.953125 54.6484375 C-24.77303967 54.76613592 -26.59294488 54.88398053 -28.4128418 55.00195312 C-29.3657309 55.06261963 -30.31862 55.12328613 -31.30038452 55.18579102 C-45.7405774 56.11208607 -60.1811452 57.07575424 -74.59777832 58.32110596 C-75.97415607 58.43893303 -77.35086856 58.55292264 -78.72790527 58.66278076 C-82.83849577 58.99317534 -86.91433071 59.4420621 -91 60 C-91.90661377 60.08677002 -92.81322754 60.17354004 -93.74731445 60.26293945 C-96.46160951 60.76332485 -97.89970018 61.19620963 -100 63 C-102.08115971 67.5517669 -102.92939516 72.29254695 -103.8125 77.1875 C-104.09346451 78.57538272 -104.37855792 79.96243581 -104.66772461 81.34863281 C-105.22748346 84.04946181 -105.76943444 86.75274944 -106.29492188 89.46044922 C-107.08709582 93.43722823 -108.0305571 97.32946284 -109.0625 101.25 C-110.70095541 107.6851267 -112.21274831 114.14629787 -113.703125 120.6171875 C-113.9642659 121.75044464 -114.2254068 122.88370178 -114.49446106 124.05130005 C-117.61868786 137.64580041 -120.66227824 151.25817365 -123.6875 164.875 C-123.83749954 165.54983681 -123.98749908 166.22467361 -124.14204407 166.91996002 C-132.30428472 203.647881 -140.07467645 240.45396824 -147.625 277.3125 C-147.84168335 278.36814148 -148.0583667 279.42378296 -148.28161621 280.51141357 C-148.89065957 283.48238674 -149.49667544 286.45395942 -150.1015625 289.42578125 C-150.28016815 290.29617538 -150.4587738 291.16656952 -150.64279175 292.06333923 C-151.5816593 296.69716863 -152.38387792 301.31202887 -153 306 C-158.95845849 308.12859927 -164.8335388 309.73589559 -171.05078125 310.89453125 C-171.87200974 311.05040207 -172.69323822 311.20627289 -173.53935242 311.36686707 C-175.25712787 311.69026414 -176.97554979 312.01024509 -178.69458008 312.3269043 C-181.32599279 312.81500277 -183.9528139 313.32408529 -186.58007812 313.83398438 C-188.25757306 314.14711876 -189.93530017 314.45901249 -191.61328125 314.76953125 C-192.39560623 314.92355911 -193.17793121 315.07758698 -193.98396301 315.23628235 C-199.39070971 316.20176884 -199.39070971 316.20176884 -202.15403748 315.28668213 C-204.53547005 313.62676396 -204.7440258 312.59303375 -205.33496094 309.78100586 C-205.52576233 308.91093399 -205.71656372 308.04086212 -205.91314697 307.14442444 C-206.10165222 306.19828781 -206.29015747 305.25215118 -206.484375 304.27734375 C-206.69366638 303.29160873 -206.90295776 302.30587372 -207.11859131 301.29026794 C-207.76721648 298.19745389 -208.38792049 295.10023813 -209 292 C-209.18473877 291.07358704 -209.36947754 290.14717407 -209.55981445 289.19268799 C-210.85255346 282.66052783 -212.06135309 276.11429392 -213.25 269.5625 C-213.43875702 268.52997101 -213.62751404 267.49744202 -213.82199097 266.43362427 C-217.96910912 243.71671633 -221.68308999 220.93197395 -225.35856628 198.1348877 C-227.26015661 186.35382814 -229.21989326 174.5826838 -231.1875 162.8125 C-231.51641418 160.84148082 -231.84527235 158.8704523 -232.17407227 156.89941406 C-233.57196346 148.52343006 -234.97393517 140.14815031 -236.38459778 131.77430725 C-236.95740715 128.37263262 -237.52855443 124.97067997 -238.09951782 121.56869507 C-238.48921665 119.25161586 -238.88163022 116.93500753 -239.27416992 114.6184082 C-239.50583689 113.23911861 -239.73737208 111.85980687 -239.96875 110.48046875 C-240.16919922 109.29348389 -240.36964844 108.10649902 -240.57617188 106.88354492 C-241 104 -241 104 -241 101 C-252.18304277 103.60098637 -263.32913119 106.31443736 -274.4375 109.21875 C-289.00732717 113.0117674 -303.59576332 116.7298196 -318.1875 120.4375 C-320.71420727 121.08002088 -323.24090003 121.72259879 -325.76757812 122.36523438 C-331.84488616 123.91080942 -337.92236861 125.45569699 -344 127 C-345.35545761 134.55436103 -346.3891126 142.03542162 -346.96484375 149.6875 C-347.04277664 150.66154785 -347.12070953 151.6355957 -347.20100403 152.63916016 C-347.36589387 154.70149864 -347.52871766 156.76400325 -347.6895752 158.82666016 C-348.10759165 164.17710616 -348.54266523 169.52614099 -348.98046875 174.875 C-349.06624176 175.92341064 -349.15201477 176.97182129 -349.24038696 178.05200195 C-350.26282806 190.39360736 -351.55884118 202.70034037 -353 215 C-351.90461914 214.78384033 -350.80923828 214.56768066 -349.68066406 214.3449707 C-313.0028645 207.11455296 -313.0028645 207.11455296 -295.8125 204 C-294.68811523 203.79286377 -293.56373047 203.58572754 -292.40527344 203.37231445 C-291.37047852 203.18757568 -290.33568359 203.00283691 -289.26953125 202.8125 C-288.38885986 202.65394531 -287.50818848 202.49539063 -286.60083008 202.33203125 C-283.71077242 201.96307618 -280.91042816 201.94465956 -278 202 C-277.79293798 217.5315687 -278.3958667 232.88502249 -279.5 248.375 C-279.64521417 250.49083866 -279.7897482 252.60672411 -279.93359375 254.72265625 C-280.28127202 259.81567447 -280.63798081 264.90798191 -281 270 C-286.27504811 272.44216816 -291.40364704 273.98195823 -297.0625 275.26953125 C-297.92370956 275.47120407 -298.78491913 275.67287689 -299.67222595 275.88066101 C-301.50391816 276.30916213 -303.33624768 276.73494682 -305.16915894 277.15820312 C-309.90913958 278.25376252 -314.64374852 279.37209471 -319.37890625 280.48828125 C-320.30433731 280.70594147 -321.22976837 280.92360168 -322.1832428 281.14785767 C-329.45339851 282.86110583 -336.70585214 284.62980879 -343.9375 286.5 C-344.84564453 286.73050049 -345.75378906 286.96100098 -346.68945312 287.19848633 C-347.90858398 287.51789185 -347.90858398 287.51789185 -349.15234375 287.84375 C-350.1731604 288.10961914 -350.1731604 288.10961914 -351.21459961 288.38085938 C-353.30570092 289.02218287 -353.30570092 289.02218287 -356 291 C-361.09037403 307.0718551 -359.08870758 326.81616521 -359.17523193 343.51672363 C-359.18337677 344.99940889 -359.19446048 346.48208106 -359.20855713 347.96472168 C-359.22639273 350.05472492 -359.23045285 352.14430464 -359.23046875 354.234375 C-359.23457764 355.44319336 -359.23868652 356.65201172 -359.24291992 357.89746094 C-359.01141393 360.85422294 -358.5530978 362.51473574 -357 365 C-348.76078854 364.49216842 -340.99978515 362.71452384 -333 360.75 C-323.33117032 358.42177732 -313.65415843 356.26043891 -303.875 354.4375 C-295.34708532 352.84439432 -286.8532829 351.15215711 -278.375 349.3125 C-249.61834806 343.088197 -220.81527147 337.07447884 -191.9375 331.4375 C-191.06928619 331.26760559 -190.20107239 331.09771118 -189.30654907 330.92266846 C-186.85977028 330.44475568 -184.41245358 329.96973013 -181.96484375 329.49609375 C-180.90246994 329.28899529 -180.90246994 329.28899529 -179.81863403 329.07771301 C-174.00672934 327.96102417 -168.17934352 326.87615625 -162.25 326.75 C-161.51265625 326.72421875 -160.7753125 326.6984375 -160.015625 326.671875 C-157.39937422 327.09777629 -156.66029035 327.96966066 -155 330 C-154.19639872 337.79576088 -156.03031639 345.28917434 -157.59246826 352.89797974 C-158.40550174 356.85825834 -159.19107628 360.82401666 -159.98046875 364.7890625 C-160.14552917 365.61416824 -160.3105896 366.43927399 -160.48065186 367.28938293 C-162.55444183 377.69885901 -164.44191403 388.14285469 -166.33181763 398.58700562 C-166.62294821 400.19528931 -166.91486982 401.80343007 -167.20768738 403.41140747 C-167.47315413 404.86920441 -167.73678768 406.32733683 -167.99824524 407.78585815 C-168.51382457 410.61363845 -169.08927961 413.26783882 -170 416 C-172.02734375 416.7734375 -172.02734375 416.7734375 -174.9375 417.375 C-176.10023438 417.61863281 -177.26296875 417.86226562 -178.4609375 418.11328125 C-179.97365369 418.41040937 -181.48671792 418.70576754 -183 419 C-183.98000977 419.19384277 -184.96001953 419.38768555 -185.96972656 419.58740234 C-196.83061976 421.73189955 -207.67492329 423.87245729 -218.63452148 425.45288086 C-221.17314573 425.82009436 -221.17314573 425.82009436 -223 428 C-223.25648422 430.50518466 -223.38881052 432.90932227 -223.43896484 435.42089844 C-223.46217741 436.19580722 -223.48538998 436.970716 -223.50930595 437.76910686 C-223.58546031 440.38235998 -223.64796052 442.99577364 -223.7109375 445.609375 C-223.76341205 447.48033859 -223.81688269 449.35127446 -223.87127686 451.22218323 C-223.98742845 455.26743675 -224.09812543 459.31278851 -224.20465088 463.35830688 C-224.49240782 474.24867694 -224.81777676 485.13796809 -225.140625 496.02734375 C-225.19053022 497.72549508 -225.19053022 497.72549508 -225.24144363 499.4579525 C-226.02624497 526.08308128 -227.05643 552.69746775 -228.125 579.3125 C-228.21215295 581.48864686 -228.29929096 583.66479431 -228.38641357 585.84094238 C-228.71221922 593.9718575 -229.03816906 602.10276532 -229.36869812 610.23348999 C-229.69799652 618.34834246 -230.0236117 626.46310595 -230.31030273 634.57958984 C-230.3548056 635.8332988 -230.39930847 637.08700775 -230.44515991 638.37870789 C-230.52199917 640.58208768 -230.5967407 642.78554245 -230.66860962 644.98908997 C-231.4015055 666.16878912 -231.4015055 666.16878912 -234.63671875 669.875 C-240.18905626 672.5180962 -246.08788463 670.74645671 -251.75 669.1875 C-252.52931885 668.97738281 -253.3086377 668.76726563 -254.11157227 668.55078125 C-263.11049624 666.06162819 -272.02375984 663.27561052 -280.9375 660.5 C-281.69035278 660.26711273 -282.44320557 660.03422546 -283.21887207 659.79428101 C-310.19208402 651.42597962 -310.19208402 651.42597962 -314 646 C-314.56522609 642.93102635 -314.48303221 639.93131101 -314.39453125 636.8203125 C-314.38049759 635.89727325 -314.36646393 634.97423401 -314.352005 634.02322388 C-314.11099212 623.70515934 -313.10807967 613.45551147 -312.03488159 603.19628906 C-311.55592005 598.61697406 -311.10008419 594.03543228 -310.64271545 589.45391846 C-310.4133308 587.15786566 -310.18282283 584.86192479 -309.95115662 582.56610107 C-309.02672402 573.38400578 -308.20016361 564.1967693 -307.4375 555 C-307.20785637 552.24993046 -306.97729473 549.49993904 -306.74609375 546.75 C-306.68822189 546.06108673 -306.63035004 545.37217346 -306.57072449 544.66238403 C-305.68285215 534.16530987 -304.70511108 523.67606345 -303.7414856 513.18572998 C-302.84582267 503.43101685 -301.96151087 493.67605046 -301.1484375 483.9140625 C-301.08190979 483.11901306 -301.01538208 482.32396362 -300.94683838 481.50482178 C-300.63870747 477.81613652 -300.33486813 474.12719385 -300.0390625 470.4375 C-299.33140575 461.8950721 -298.3115894 453.47020156 -297 445 C-316.0630854 448.25209363 -334.91601177 452.24318712 -353.75 456.625 C-354.83894562 456.87805908 -355.92789124 457.13111816 -357.04983521 457.3918457 C-368.6865147 460.09932601 -380.31588471 462.83756816 -391.94314575 465.58517456 C-396.70964302 466.70943688 -401.47789556 467.82613132 -406.24645996 468.94158936 C-409.61964732 469.73405923 -412.98997078 470.53797696 -416.36035156 471.34228516 C-418.43150156 471.82774212 -420.50278381 472.31263533 -422.57421875 472.796875 C-423.50008286 473.02126251 -424.42594696 473.24565002 -425.37986755 473.47683716 C-439.22778012 476.67488285 -439.22778012 476.67488285 -445 473.1875 C-449.38311853 468.39346411 -448.17416196 462.10839293 -448 456 C-447.74557261 450.45084214 -447.36874625 444.90858036 -447.00390625 439.36581421 C-445.34477743 413.9828891 -443.91152518 388.5851772 -442.5 363.1875 C-442.44593616 362.21496655 -442.39187233 361.24243309 -442.3361702 360.24042892 C-440.25668639 322.74457461 -438.61727508 285.24010685 -437.27929688 247.7109375 C-437.10973749 242.96560933 -436.93090701 238.2209288 -436.73632812 233.4765625 C-435.50456523 203.11294325 -434.9803283 172.73018333 -434.7890625 142.34375 C-434.77462241 140.1955562 -434.76011648 138.04736283 -434.74554443 135.89916992 C-434.68781924 127.19127115 -434.63124068 118.48342532 -434.59863281 109.77539062 C-434.57774413 104.32878997 -434.54259031 98.88244439 -434.49787521 93.43598938 C-434.48378389 91.39149435 -434.47500842 89.34695505 -434.47182083 87.30241394 C-434.46693199 84.4845326 -434.44386045 81.66734927 -434.41650391 78.84960938 C-434.41951004 78.0219104 -434.42251617 77.19421143 -434.4256134 76.34143066 C-434.35908782 71.74509543 -433.96210802 68.7427911 -431 65 C-428.96118164 63.77514648 -428.96118164 63.77514648 -426.59765625 62.93359375 C-425.70320801 62.61116699 -424.80875977 62.28874023 -423.88720703 61.95654297 C-422.93442871 61.64088379 -421.98165039 61.32522461 -421 61 C-420.06397949 60.68820801 -419.12795898 60.37641602 -418.16357422 60.05517578 C-414.93270086 59.01704 -411.68946417 58.03257055 -408.4375 57.0625 C-407.81784363 56.87702606 -407.19818726 56.69155212 -406.55975342 56.50045776 C-386.14850304 50.41355514 -365.51287937 45.0995857 -344.89849854 39.75195312 C-342.2266935 39.05881075 -339.55546323 38.36349226 -336.88427734 37.66796875 C-315.4245675 32.09504181 -293.84320354 27.05884064 -272.22338486 22.15018845 C-270.23016153 21.69719554 -268.23731359 21.2425834 -266.24453735 20.78762817 C-252.59572973 17.67928517 -238.93373188 14.70170182 -225.17578125 12.11328125 C-224.07977097 11.90466965 -222.98376068 11.69605804 -221.85453796 11.48112488 C-201.51927626 7.75494445 -201.51927626 7.75494445 -196.1875 11.15625 C-192.8931751 16.27112288 -193.78630824 23.67008724 -193.625 29.5625 C-193.22874412 41.5842805 -192.46174372 53.56441498 -191.625 65.5625 C-190.20169106 85.99896375 -189.09040955 106.44513592 -188.09033203 126.90649414 C-187.3580065 141.63503089 -186.33282573 156.31336598 -185 171 C-184.01 171.33 -183.02 171.66 -182 172 C-181.9480246 171.14599609 -181.89604919 170.29199219 -181.84249878 169.41210938 C-181.29506681 161.050238 -180.41598823 152.79750858 -179.2578125 144.5 C-179.08877411 143.26241943 -178.91973572 142.02483887 -178.74557495 140.74975586 C-178.20957404 136.8325819 -177.66743421 132.91628771 -177.125 129 C-176.76911799 126.40760878 -176.4136464 123.81516119 -176.05859375 121.22265625 C-175.36233726 116.14178168 -174.6622723 111.06145245 -173.9597168 105.98144531 C-173.38462565 101.81555571 -172.81767303 97.64891486 -172.26879883 93.47949219 C-170.17168594 77.60655113 -167.68005261 61.79643509 -165.18383789 45.98242188 C-164.55671829 42.00943113 -163.93354774 38.0358324 -163.31149197 34.06204605 C-162.82485503 30.95607514 -162.33619775 27.85042463 -161.84694099 24.74486542 C-161.61632082 23.27953309 -161.38629593 21.81410693 -161.15691948 20.34857941 C-160.45923837 15.89539931 -159.73862674 11.44661864 -159 7 C-158.83694366 5.9725769 -158.67388733 4.94515381 -158.50588989 3.88659668 C-158.34933929 2.98526001 -158.1927887 2.08392334 -158.03149414 1.15527344 C-157.83904869 0.00789703 -157.83904869 0.00789703 -157.64271545 -1.16265869 C-157 -3 -157 -3 -154 -5 C-151.34608518 -5.38295868 -148.77020341 -5.65734455 -146.1015625 -5.8515625 C-145.29652283 -5.91559265 -144.49148315 -5.9796228 -143.66204834 -6.04559326 C-140.9838221 -6.25193349 -138.30483529 -6.44077938 -135.625 -6.625 C-134.69729797 -6.69003723 -133.76959595 -6.75507446 -132.81378174 -6.82208252 C-23.97938708 -14.27452193 -23.97938708 -14.27452193 0 0 Z " fill="#111F33" transform="translate(605,166)"/>
<path d="M0 0 C2.06135735 -0.04715657 4.1247077 0.00855379 6.18505859 0.08837891 C8.18505859 2.08837891 8.18505859 2.08837891 8.45947266 4.04052734 C8.43400605 11.0155472 7.33420854 17.51916691 5.93505859 24.33837891 C4.42357567 31.9962368 3.04690691 39.63784844 2.06787109 47.38134766 C1.98134277 48.06397675 1.89481445 48.74660583 1.80566406 49.44992065 C1.38944743 52.77772124 0.99443318 56.10636684 0.61767578 59.43896484 C0.47233398 60.64198242 0.32699219 61.845 0.17724609 63.08447266 C0.05720215 64.14851318 -0.0628418 65.21255371 -0.18652344 66.30883789 C-0.89150391 69.42702074 -1.59080982 70.80824037 -3.81494141 73.08837891 C-6.35742188 73.58717346 -6.35742188 73.58717346 -9.43212891 73.58666992 C-10.58342285 73.59670547 -11.7347168 73.60674103 -12.92089844 73.61708069 C-14.16468262 73.60889816 -15.4084668 73.60071564 -16.68994141 73.59228516 C-17.96595215 73.60170639 -19.24196289 73.61112762 -20.55664062 73.62083435 C-23.94889997 73.64470141 -27.34037689 73.65312973 -30.73266602 73.6517334 C-35.5130079 73.64977172 -40.29299925 73.65920831 -45.07324219 73.69163513 C-47.61843465 73.70851885 -50.16376711 73.71122568 -52.70898438 73.69862366 C-53.86027832 73.70550705 -55.01157227 73.71239044 -56.19775391 73.71948242 C-57.21240723 73.71852066 -58.22706055 73.7175589 -59.27246094 73.71656799 C-61.850139 73.88376532 -61.850139 73.88376532 -63.6275177 75.46966553 C-65.20610733 77.62162202 -65.42819303 79.33535596 -65.76416016 81.97509766 C-65.88984375 82.91289062 -66.01552734 83.85068359 -66.14501953 84.81689453 C-66.32194336 86.2815918 -66.32194336 86.2815918 -66.50244141 87.77587891 C-66.69676758 89.25797852 -66.69676758 89.25797852 -66.89501953 90.77001953 C-67.21304871 93.20824327 -67.51920534 95.64736772 -67.81494141 98.08837891 C-67.07518066 97.9461792 -66.33541992 97.80397949 -65.57324219 97.6574707 C-56.94395781 96.14876675 -48.6253765 95.80761728 -39.89990234 95.88256836 C-37.65792765 95.90114415 -35.41636104 95.9030751 -33.17431641 95.90283203 C-22.25963384 95.94014809 -22.25963384 95.94014809 -18.81494141 97.08837891 C-17.93041992 98.90063477 -17.93041992 98.90063477 -17.19384766 101.30322266 C-16.90461426 102.20371338 -16.61538086 103.1042041 -16.31738281 104.03198242 C-16.00720215 105.01996826 -15.69702148 106.0079541 -15.37744141 107.02587891 C-11.27658178 119.43873792 -5.94359946 131.08173436 -0.32861328 142.86962891 C1.18746861 146.09350369 2.65548923 149.33493782 4.10693359 152.58837891 C4.56342285 153.6105249 5.01991211 154.6326709 5.49023438 155.68579102 C6.35218839 157.62223783 7.21011878 159.56048205 8.06347656 161.50073242 C8.44648926 162.35594482 8.82950195 163.21115723 9.22412109 164.09228516 C9.55621582 164.84324463 9.88831055 165.5942041 10.23046875 166.36791992 C11.0725665 168.26760429 11.0725665 168.26760429 13.18505859 169.08837891 C14.15420378 157.33852553 14.42252126 145.61122429 14.60004997 133.82640076 C14.650958 130.48789996 14.70756785 127.14953855 14.76576233 123.81115723 C14.93041656 114.33142933 15.08813822 104.85160884 15.23461914 95.37158203 C15.32505426 89.54456869 15.42459246 83.71776952 15.52987862 77.89100647 C15.56801545 75.68072686 15.60268587 73.47038453 15.6337719 71.25999451 C15.67737887 68.1758833 15.73255004 65.09217536 15.7902832 62.00830078 C15.80022308 61.10325806 15.81016296 60.19821533 15.82040405 59.26574707 C16.07918353 47.18927554 16.07918353 47.18927554 19.83740234 43.43994141 C23.63140464 42.87178798 26.4733314 44.75507017 29.74755859 46.46337891 C31.28108845 47.22318078 32.81630972 47.97957646 34.35302734 48.73291016 C35.1488623 49.12559082 35.94469727 49.51827148 36.76464844 49.92285156 C40.64393047 51.7908859 44.59069013 53.48455137 48.56005859 55.15087891 C49.33655762 55.47685059 50.11305664 55.80282227 50.91308594 56.13867188 C59.57033103 59.72496544 68.37017357 62.91511912 77.18505859 66.08837891 C76.46347726 84.46151501 74.99488335 102.78300438 73.57403946 121.11214828 C73.37068861 123.7375215 73.16833262 126.36296995 72.96615601 128.98843384 C71.15310981 152.50173005 69.18597678 175.98860713 66.837677 199.45516968 C65.99104895 207.9520029 65.23385208 216.45635721 64.49755859 224.96337891 C64.43396149 225.69094391 64.37036438 226.41850891 64.30484009 227.16812134 C63.48995465 236.5410999 62.78651765 245.91087971 62.65112305 255.32226562 C62.52774667 259.72252177 61.9056703 262.58092362 59.18505859 266.08837891 C55.94951736 267.70614952 52.35270519 267.76176985 48.79443359 268.17431641 C47.94552048 268.27590561 47.09660736 268.37749481 46.2219696 268.48216248 C44.40238598 268.69967037 42.58260986 268.91557277 40.76266479 269.1300354 C36.07570426 269.68257622 31.39015519 270.2468037 26.70458984 270.81103516 C25.78787003 270.92120468 24.87115021 271.03137421 23.926651 271.1448822 C13.99652258 272.34327941 4.08715385 273.67707217 -5.81494141 275.08837891 C-9.31926266 269.84032998 -12.02509092 264.67372642 -14.24072266 258.77197266 C-14.69780609 257.58159645 -14.69780609 257.58159645 -15.16412354 256.36717224 C-16.16174929 253.75703496 -17.1452416 251.14185647 -18.12744141 248.52587891 C-18.47032196 247.6218634 -18.81320251 246.7178479 -19.16647339 245.78643799 C-25.64518426 228.69547006 -31.59394886 211.43410692 -37.32202148 194.07836914 C-43.05243263 175.89989604 -43.05243263 175.89989604 -51.81494141 159.08837891 C-54.52977734 158.67100019 -54.52977734 158.67100019 -57.69775391 158.79541016 C-59.44765625 158.80991211 -59.44765625 158.80991211 -61.23291016 158.82470703 C-62.45623047 158.84984375 -63.67955078 158.87498047 -64.93994141 158.90087891 C-66.78652344 158.92118164 -66.78652344 158.92118164 -68.67041016 158.94189453 C-71.71904124 158.97734373 -74.76670371 159.02928893 -77.81494141 159.08837891 C-77.93289566 159.86045181 -78.05084991 160.63252472 -78.17237854 161.42799377 C-79.97454869 173.1876996 -81.84995424 184.93550236 -83.73528194 196.68210506 C-84.30098688 200.20676173 -84.86524947 203.73163554 -85.42602539 207.25708008 C-85.97618319 210.71559042 -86.5300455 214.17348978 -87.08636665 217.63101387 C-87.39390193 219.54788731 -87.69786358 221.46533304 -88.00169373 223.38279724 C-91.72856907 246.4588204 -91.72856907 246.4588204 -94.81494141 251.08837891 C-97.74259689 251.93112288 -100.55629684 252.59439117 -103.53759766 253.17431641 C-104.86504753 253.44770088 -104.86504753 253.44770088 -106.21931458 253.72660828 C-109.10307184 254.31747804 -111.99002104 254.89070313 -114.87744141 255.46337891 C-116.84721018 255.86267837 -118.81677426 256.26298889 -120.78613281 256.66430664 C-124.67769106 257.4552664 -128.57056432 258.23915247 -132.46484375 259.01660156 C-136.99817915 259.92226691 -141.52652971 260.84931253 -146.05322266 261.78759766 C-148.2653565 262.2425392 -150.4775855 262.69701846 -152.68994141 263.15087891 C-153.6722876 263.35438965 -154.65463379 263.55790039 -155.66674805 263.76757812 C-156.55869873 263.94691895 -157.45064941 264.12625977 -158.36962891 264.31103516 C-159.11712402 264.4632251 -159.86461914 264.61541504 -160.63476562 264.7722168 C-163.05311783 265.12291849 -165.37461382 265.14173259 -167.81494141 265.08837891 C-167.31723531 254.03747897 -165.89622532 243.35155697 -164.00244141 232.46337891 C-163.72940086 230.86164327 -163.4567815 229.25983578 -163.18457031 227.65795898 C-161.64436527 218.64311825 -160.04331496 209.64072575 -158.27430725 200.6676178 C-157.28412429 195.61697097 -156.36614971 190.55940085 -155.50502014 185.48522949 C-153.04016388 170.97144002 -150.25571055 156.52524427 -147.37744141 142.08837891 C-147.12127045 140.8025592 -146.86509949 139.5167395 -146.60116577 138.19195557 C-139.69521278 103.62833996 -131.64591661 69.31970955 -122.75244141 35.21337891 C-122.57621246 34.53063904 -122.39998352 33.84789917 -122.21841431 33.14447021 C-117.80767545 16.15307442 -117.80767545 16.15307442 -114.81494141 12.08837891 C-111.91038106 10.71585783 -110.25356697 10.19716992 -107.18994141 9.77587891 C-106.40345215 9.63674072 -105.61696289 9.49760254 -104.80664062 9.35424805 C-103.07097794 9.05495557 -101.3318717 8.77515285 -99.59033203 8.51220703 C-96.75426874 8.07911362 -93.93529361 7.58109404 -91.11181641 7.07275391 C-60.93773218 1.83419762 -30.52880607 0.9584933 0 0 Z " fill="#111F33" transform="translate(634.81494140625,231.91162109375)"/>
<path d="M0 0 C-0.0721875 0.66 -0.144375 1.32 -0.21875 2 C-0.56215634 5.663001 -0.79714506 9.32713234 -1 13 C-1.04753418 13.78906738 -1.09506836 14.57813477 -1.14404297 15.39111328 C-1.84425807 28.78753624 -0.60758249 41.57253003 1.625 54.75 C1.80169724 55.80019821 1.80169724 55.80019821 1.98196411 56.87161255 C6.66097935 84.24531504 13.26009501 111.32680426 19.39331055 138.40283203 C20.2512053 142.19164525 21.10494668 145.98135537 21.95483398 149.77197266 C26.62372167 170.58881519 31.47736866 191.33720812 36.8828125 211.9765625 C37.11063101 212.84891666 37.33844952 213.72127083 37.57317162 214.62005997 C40.61862042 226.24360458 43.91674742 237.72033198 47.85546875 249.078125 C49.27360463 253.54753009 49.91155981 257.11833305 47.79882812 261.47949219 C45.72109479 264.39080041 44.01900808 265.45946145 40.85546875 267.09375 C39.80020996 267.64329346 38.74495117 268.19283691 37.65771484 268.7590332 C35.9399585 269.62081177 35.9399585 269.62081177 34.1875 270.5 C33.60107727 270.79836761 33.01465454 271.09673523 32.41046143 271.40414429 C22.70334202 276.3414848 12.83961853 280.92089572 2.875 285.3125 C2.24347015 285.59480469 1.61194031 285.87710937 0.96127319 286.16796875 C-6.08956031 289.303973 -12.25135955 291.69172076 -20 292 C-23.24773396 287.51947118 -23.83320099 283.33476985 -24.53515625 277.9921875 C-24.65934433 277.11209015 -24.78353241 276.2319928 -24.91148376 275.32522583 C-25.17286893 273.45826545 -25.42889521 271.59054801 -25.67993164 269.72216797 C-26.05489236 266.93161789 -26.4447312 264.14350663 -26.83789062 261.35546875 C-28.47717916 249.59411211 -29.83395382 237.81718384 -31 226 C-35.67455303 227.45258197 -40.34771553 228.90953608 -45.01977539 230.37011719 C-46.60080348 230.8637594 -48.18217055 231.35631754 -49.76391602 231.84765625 C-59.15543079 234.76587288 -68.48309024 237.79546057 -77.72373962 241.16531372 C-82.79626802 243 -82.79626802 243 -85 243 C-85.67233062 246.54061171 -86.33646826 250.08272962 -87 253.625 C-87.21785156 254.77677734 -87.43570313 255.92855469 -87.66015625 257.11523438 C-89.00709659 264.33203766 -90.26708857 271.55599798 -91.43383789 278.80429077 C-92.10825961 282.98930967 -92.79837264 287.17169712 -93.48828125 291.35418701 C-93.82946021 293.45159935 -94.16279657 295.55030245 -94.48828125 297.65020752 C-94.95171973 300.63494681 -95.44191971 303.61420366 -95.9375 306.59375 C-96.0708374 307.4989035 -96.2041748 308.40405701 -96.34155273 309.3366394 C-96.48536377 310.17107574 -96.6291748 311.00551208 -96.77734375 311.86523438 C-96.95124634 312.95886292 -96.95124634 312.95886292 -97.12866211 314.07458496 C-98.43335598 316.95759651 -100.17754756 317.66885944 -103 319 C-105.85218811 319.74040222 -105.85218811 319.74040222 -109.01196289 320.25854492 C-110.19991959 320.45852585 -111.38787628 320.65850677 -112.61183167 320.86454773 C-114.52293983 321.16942863 -114.52293983 321.16942863 -116.47265625 321.48046875 C-117.80127944 321.69955391 -119.12976388 321.91948199 -120.45811462 322.14021301 C-123.23514973 322.59948694 -126.0131824 323.05188608 -128.79223633 323.4987793 C-132.35023956 324.0710142 -135.9061382 324.6552174 -139.46144962 325.24392223 C-142.86032939 325.80615814 -146.26021019 326.36222427 -149.66015625 326.91796875 C-151.57430077 327.23195869 -151.57430077 327.23195869 -153.52711487 327.55229187 C-154.7119194 327.74281631 -155.89672394 327.93334076 -157.11743164 328.12963867 C-158.15936172 328.29823898 -159.20129181 328.46683929 -160.27479553 328.64054871 C-163 329 -163 329 -167 329 C-167.21449287 323.54185046 -166.47350459 318.89076654 -165.12890625 313.61328125 C-164.93146317 312.81135345 -164.73402008 312.00942566 -164.53059387 311.18319702 C-163.88215465 308.55768304 -163.22230139 305.93517936 -162.5625 303.3125 C-162.10488579 301.46673746 -161.64802768 299.62078731 -161.19189453 297.7746582 C-159.02615302 289.02783588 -156.82307906 280.29046543 -154.61328125 271.5546875 C-153.86630855 268.59917955 -153.12021711 265.6434511 -152.375 262.6875 C-152.19134888 261.95948181 -152.00769775 261.23146362 -151.81848145 260.48138428 C-148.0364257 245.45325742 -144.65218459 230.34556117 -141.35516357 215.2046051 C-140.40119364 210.82443372 -139.43285485 206.44785217 -138.44921875 202.07421875 C-135.36243072 188.34852111 -132.42455921 174.59517121 -129.5418396 160.82550049 C-127.35289099 150.37116082 -125.1206339 139.9288202 -122.8125 129.5 C-118.7629521 111.17046742 -114.95186467 92.78982949 -111.11796665 74.4142437 C-110.44112028 71.17058996 -109.76350904 67.92709607 -109.0859375 64.68359375 C-108.82449448 63.43053436 -108.56305145 62.17747498 -108.29368591 60.88644409 C-107.06311956 55.00580478 -105.81654508 49.12965157 -104.52441406 43.26220703 C-104.29420563 42.21654068 -104.06399719 41.17087433 -103.82681274 40.09352112 C-103.40172219 38.17196187 -102.97343728 36.25110488 -102.54110718 34.3311615 C-101.66454003 30.37663298 -100.91152845 26.51818944 -100.51489258 22.48486328 C-100 19 -100 19 -97.59765625 17.14453125 C-92.91843512 15.6559191 -88.25889065 14.60504552 -83.4375 13.6875 C-82.36685303 13.47802734 -81.29620605 13.26855469 -80.19311523 13.05273438 C-68.76609124 10.8671548 -57.27674818 9.0617803 -45.78662109 7.24438477 C-35.10450949 5.54771059 -24.48722286 3.65212335 -13.89086914 1.47265625 C-9.1855367 0.52159098 -4.83183893 -0.27797381 0 0 Z " fill="#111F33" transform="translate(664,526)"/>
<path d="M0 0 C6.55127357 0.21716929 11.60485795 2.26626294 17.4375 5.125 C18.27933838 5.53314941 19.12117676 5.94129883 19.98852539 6.36181641 C25.93935043 9.31784984 31.09318961 12.49152846 36 17 C37.01690648 17.87913646 38.03525264 18.75660917 39.0546875 19.6328125 C48.0274234 27.50156251 52.23622799 33.33648346 53.7890625 45.10546875 C54.00604797 46.61034851 54.00604797 46.61034851 54.22741699 48.14562988 C54.70676502 51.49115644 55.16566179 54.83917238 55.625 58.1875 C55.96314896 60.57223922 56.30286773 62.95675631 56.64404297 65.34106445 C57.28363407 69.81781655 57.91920254 74.29508989 58.54924202 78.77319622 C59.83697334 87.91722814 61.17637228 97.05320089 62.53125 106.1875 C62.74683625 107.6419416 62.9624175 109.09638395 63.17799377 110.55082703 C63.50225124 112.73813902 63.82654723 114.92544526 64.15095615 117.11273479 C67.37672911 138.8682794 70.54665895 160.63023437 73.53668213 182.4196167 C75.52038972 196.86026742 77.71051872 211.26423108 79.9425354 225.66836548 C82.60930912 242.92675922 84.93793604 260.22012192 87.13476562 277.54418945 C87.25353058 278.47821594 87.37229553 279.41224243 87.49465942 280.37457275 C87.71522435 282.11428037 87.93399771 283.85421649 88.15060425 285.59442139 C88.63575607 289.43614397 89.21429792 293.20601863 90 297 C90.11294536 298.8517785 90.17459892 300.70732512 90.1875 302.5625 C90.20167969 303.49191406 90.21585938 304.42132812 90.23046875 305.37890625 C89.97562673 308.27719427 89.5969333 309.57749206 88 312 C85.36474609 313.79589844 85.36474609 313.79589844 82.0234375 315.609375 C81.42533264 315.93765793 80.82722778 316.26594086 80.21099854 316.60417175 C78.27171605 317.66437699 76.32399926 318.70778075 74.375 319.75 C73.04446294 320.47023762 71.71422223 321.191023 70.38427734 321.91235352 C67.16473968 323.65333537 63.93706148 325.37841448 60.7043457 327.0947876 C59.19404849 327.89693693 57.68574221 328.70283232 56.17773438 329.50927734 C43.51432963 336.24856704 43.51432963 336.24856704 36 337 C32.37283534 332.22794817 32.05366463 327.21000537 31.375 321.4375 C31.25382813 320.53064453 31.13265625 319.62378906 31.0078125 318.68945312 C29.77117222 308.77616826 29.50257639 299.05152779 29 289 C15.8 293.62 2.6 298.24 -11 303 C-12.03125 308.81625 -13.0625 314.6325 -14.125 320.625 C-22.54251367 366.77287337 -22.54251367 366.77287337 -32.3203125 374.9375 C-39.99909978 380.12643527 -48.64537418 383.74164738 -57.0625 387.5625 C-57.66871185 387.84051453 -58.27492371 388.11852905 -58.89950562 388.40496826 C-60.64705353 389.20125418 -62.40349164 389.97793948 -64.16015625 390.75390625 C-65.18761963 391.21095947 -66.21508301 391.6680127 -67.27368164 392.13891602 C-70 393 -70 393 -72.24707031 392.96582031 C-74 392 -74 392 -75.08081055 389.74682617 C-75.34676025 388.77205322 -75.61270996 387.79728027 -75.88671875 386.79296875 C-76.18513672 385.73142578 -76.48355469 384.66988281 -76.79101562 383.57617188 C-77.08685547 382.45791016 -77.38269531 381.33964844 -77.6875 380.1875 C-77.99494141 379.08083984 -78.30238281 377.97417969 -78.61914062 376.83398438 C-79.43196133 373.89395674 -80.22629811 370.95053955 -81 368 C-81.2935437 367.05314331 -81.2935437 367.05314331 -81.59301758 366.0871582 C-82.7467083 360.1706003 -81.73951279 355.41151277 -79.7265625 349.8203125 C-79.48750687 349.14381149 -79.24845123 348.46731049 -79.00215149 347.77030945 C-78.48708862 346.31365776 -77.96758514 344.85856998 -77.44406128 343.40493774 C-76.03185827 339.47393156 -74.66280959 335.52796102 -73.29296875 331.58203125 C-73.01258255 330.77563705 -72.73219635 329.96924286 -72.4433136 329.13841248 C-69.77108159 321.41403201 -67.29676322 313.63768847 -64.9375 305.8125 C-64.7389743 305.15404083 -64.54044861 304.49558167 -64.33590698 303.81716919 C-59.57618638 287.95295761 -55.22609481 271.96928442 -50.90319824 255.98153687 C-49.85937821 252.12712769 -48.80011377 248.27843536 -47.70336914 244.4387207 C-44.74376958 234.05228087 -42.27772949 223.63098487 -40.0625 213.0625 C-39.53947966 210.59879567 -39.01449137 208.13551584 -38.48937988 205.67225647 C-38.14166857 204.04066544 -37.79457478 202.40894268 -37.44812012 200.77708435 C-36.05772433 194.23555543 -34.59937761 187.71058357 -33.125 181.1875 C-28.68813292 161.39692217 -24.62119356 141.524335 -20.54553223 121.65686035 C-20.06303731 119.30700537 -19.57831419 116.95762543 -19.09277344 114.60839844 C-12.16237993 80.88391852 -6.42354165 46.72181535 -3.19091797 12.43481445 C-3.08798431 11.38388359 -3.08798431 11.38388359 -2.98297119 10.3117218 C-2.80285355 8.45468742 -2.63457696 6.59651496 -2.46728516 4.73828125 C-2 2 -2 2 0 0 Z " fill="#111F32" transform="translate(796,357)"/>
<path d="M0 0 C6.25785463 -0.87614009 10.98241389 1.2870256 16.6484375 3.76953125 C18.03050385 4.35734375 18.03050385 4.35734375 19.44049072 4.95703125 C22.42414987 6.22978841 25.39963336 7.52048991 28.375 8.8125 C30.43240862 9.69642144 32.49019022 10.57947523 34.54833984 11.46166992 C38.57914177 13.19218227 42.60648098 14.93038455 46.63085938 16.67578125 C50.93836981 18.54348352 55.25484397 20.38788564 59.578125 22.21875 C86.88560959 33.86649224 112.78877486 48.13947205 137.30810547 64.85498047 C138.98894907 65.99252109 140.68104365 67.11070718 142.37890625 68.22265625 C157.06609054 77.86393673 157.06609054 77.86393673 159 83 C159.95249157 94.33837825 158.4140101 105.55662972 156.75 116.75 C156.52219507 118.33370201 156.29465832 119.91744263 156.06738281 121.5012207 C151.39773457 153.60226543 151.39773457 153.60226543 149 156 C142.74435978 157.08793743 139.20979302 154.72729801 134.08984375 151.2578125 C129.44885688 147.86654776 124.94311476 144.31811641 120.453125 140.73046875 C112.6014145 134.28321157 112.6014145 134.28321157 104 129 C103.94148613 129.96217438 103.94148613 129.96217438 103.88179016 130.94378662 C101.86018595 164.00302553 99.49245618 196.91777999 95.28131104 229.78326416 C95.01936711 231.84738684 94.7659075 233.91228639 94.51708984 235.97802734 C91.96210991 257.08548564 88.00859373 277.92183768 83.99487305 298.79150391 C83.32976275 302.2546183 82.68119708 305.72021679 82.04614258 309.18896484 C79.66688295 322.1067653 76.78912795 334.86284271 73.6875 347.625 C73.30857605 349.19391495 73.30857605 349.19391495 72.92199707 350.79452515 C68.48451262 369.16383461 63.89443651 387.49460525 59.25 405.8125 C58.94629486 407.01312073 58.64258972 408.21374146 58.3296814 409.45074463 C54.05402866 426.32893848 49.5295468 443.12770251 44.85961914 459.90084839 C43.7357224 463.95278981 42.63407708 468.01049015 41.5390625 472.0703125 C41.04986328 473.87242187 41.04986328 473.87242187 40.55078125 475.7109375 C39.90633354 478.08750837 39.26601737 480.46520183 38.62890625 482.84375 C38.31050781 484.01164062 37.99210938 485.17953125 37.6640625 486.3828125 C37.39029785 487.39746582 37.1165332 488.41211914 36.83447266 489.45751953 C36 492 36 492 34 495 C33.34 495 32.68 495 32 495 C27.98159325 486.89045516 25.81403004 478.47986632 23.625 469.75 C23.42957611 468.98022827 23.23415222 468.21045654 23.0328064 467.4173584 C19.21617471 452.36809354 15.96442056 437.24070396 13 422 C12.73329142 420.64364242 12.46618991 419.28736206 12.19873047 417.93115234 C-0.50567494 353.49331043 -0.50567494 353.49331043 7 333 C11.5548624 328.90415474 18.29962118 328.58380546 24.13867188 327.5390625 C24.96044922 327.38179687 25.78222656 327.22453125 26.62890625 327.0625 C27.37213135 326.92972656 28.11535645 326.79695313 28.88110352 326.66015625 C31.59209675 325.81552833 33.01605129 325.06492079 35 323 C35.75924444 320.42888645 36.21546741 318.19000193 36.5625 315.5546875 C36.67980469 314.73990936 36.79710937 313.92513123 36.91796875 313.08566284 C38.81111908 299.00425584 39.72347522 284.78298002 40.80805206 270.62136459 C41.06784578 267.24263682 41.33293326 263.86433128 41.59776497 260.48599529 C43.36420785 237.93199573 45.03273041 215.37310218 46.44129944 192.7936554 C46.86791885 185.98486419 47.32212138 179.17810843 47.78399658 172.37162781 C48.11598147 167.47886904 48.44297466 162.58577984 48.76893616 157.69261646 C48.99718864 154.26941767 49.22742906 150.84638242 49.46295166 147.42367554 C50.73040977 128.93331233 50.73040977 128.93331233 51.23828125 110.41015625 C51.24820602 109.60259384 51.2581308 108.79503143 51.26835632 107.96299744 C51.36592227 102.58006725 51.36592227 102.58006725 49 98 C46.73328159 96.79829612 44.62569314 95.84561995 42.24609375 94.93359375 C41.56125412 94.65804153 40.87641449 94.38248932 40.17082214 94.09858704 C38.69714539 93.50713741 37.22101062 92.92178305 35.74273682 92.34191895 C31.86600017 90.8209498 28.00676037 89.2565692 24.14453125 87.69921875 C23.36938171 87.38820221 22.59423218 87.07718567 21.79559326 86.75674438 C14.67560089 83.89279976 7.64056769 80.86081079 0.625 77.75 C-0.40052979 77.29681396 -1.42605957 76.84362793 -2.48266602 76.37670898 C-6.36125766 74.65395984 -10.21582511 72.92291025 -14 71 C-14.36704335 62.06861189 -12.97353346 53.6242242 -11.375 44.875 C-11.17541687 43.76147659 -11.17541687 43.76147659 -10.97180176 42.62545776 C-9.18808471 32.69969897 -7.18774759 22.85165171 -4.75 13.0625 C-4.50427246 12.07556152 -4.25854492 11.08862305 -4.00537109 10.07177734 C-2.99640097 6.19235327 -2.24641879 3.36962818 0 0 Z " fill="#111F32" transform="translate(675,188)"/>
<path d="M0 0 C2.01822917 0.06510417 4.03645833 0.13020833 6.0546875 0.1953125 C12.02073685 11.14818121 16.21493618 22.35178743 20.0546875 34.1953125 C20.42416504 35.3311377 20.79364258 36.46696289 21.17431641 37.63720703 C28.92406243 61.62329569 28.92406243 61.62329569 31.6171875 73.5078125 C31.77340576 74.18730957 31.92962402 74.86680664 32.09057617 75.56689453 C33.06362645 80.19605968 33.1746958 84.49411763 33.0546875 89.1953125 C25.21437487 92.0119856 17.23637457 93.86891865 9.1171875 95.6953125 C-7.8030156 98.1534986 -7.8030156 98.1534986 -20.9453125 107.1953125 C-21.98550921 111.4899258 -22.46052049 115.8081848 -22.9453125 120.1953125 C-23.2647888 122.57221616 -23.59760019 124.94737503 -23.9453125 127.3203125 C-24.0896875 128.37476563 -24.2340625 129.42921875 -24.3828125 130.515625 C-24.9453125 133.1953125 -24.9453125 133.1953125 -26.9453125 136.1953125 C-29.58740234 136.96313477 -29.58740234 136.96313477 -32.90625 137.51171875 C-34.09992188 137.71861328 -35.29359375 137.92550781 -36.5234375 138.13867188 C-37.77640625 138.34298828 -39.029375 138.54730469 -40.3203125 138.7578125 C-42.78738632 139.17026842 -45.25358248 139.58801808 -47.71875 140.01171875 C-48.81622559 140.19162354 -49.91370117 140.37152832 -51.04443359 140.55688477 C-53.7148587 141.14459404 -55.68209573 141.67325076 -57.9453125 143.1953125 C-60.33306178 150.08778466 -60.88223419 157.48308404 -61.7578125 164.6953125 C-61.88178909 165.70124954 -61.88178909 165.70124954 -62.00827026 166.72750854 C-65.28771613 193.38995591 -67.91853766 220.13989496 -70.4453125 246.8828125 C-71.67292591 259.8553121 -73.07534348 272.80655958 -74.5078125 285.7578125 C-74.61399902 286.72375336 -74.72018555 287.68969421 -74.82958984 288.68490601 C-75.13769424 291.48164008 -75.44914471 294.27798104 -75.76171875 297.07421875 C-75.89599022 298.294543 -75.89599022 298.294543 -76.03297424 299.53952026 C-76.57781185 304.36812119 -77.21914998 309.17546559 -77.91577148 313.98461914 C-78.91311617 320.8746157 -79.77823664 327.77480607 -80.6015625 334.6875 C-80.82326111 336.53192184 -80.82326111 336.53192184 -81.04943848 338.41360474 C-81.51619736 342.2989996 -81.98085309 346.18464215 -82.4453125 350.0703125 C-83.05929165 355.1927809 -83.6740862 360.31515123 -84.2890625 365.4375 C-84.43564301 366.65934998 -84.58222351 367.88119995 -84.73324585 369.14007568 C-85.64755442 376.75117185 -86.5763273 384.36008777 -87.53808594 391.96533203 C-87.80177247 394.05680255 -88.06055606 396.14889948 -88.31347656 398.24169922 C-88.6349975 400.89493394 -88.97516401 403.54506517 -89.3203125 406.1953125 C-89.42085938 407.05769531 -89.52140625 407.92007812 -89.625 408.80859375 C-90.39271726 414.55774911 -91.66316278 420.91316278 -95.9453125 425.1953125 C-112.6116714 426.60572369 -129.47004952 424.5408887 -145.9453125 422.1953125 C-146.88391113 422.06189453 -147.82250977 421.92847656 -148.78955078 421.79101562 C-151.32353708 421.42133227 -153.85366933 421.03419351 -156.3828125 420.6328125 C-157.11612793 420.51832764 -157.84944336 420.40384277 -158.60498047 420.28588867 C-162.00663697 419.7069095 -164.02530097 419.14198685 -166.9453125 417.1953125 C-166.26868828 409.65885972 -164.8181854 402.41134723 -163.2265625 395.01953125 C-160.00152683 379.73398807 -157.1815118 364.38843345 -154.4453125 349.0078125 C-153.9604567 346.29545494 -153.47456662 343.58328286 -152.98876953 340.87109375 C-151.83244859 334.41121569 -150.6813323 327.95041945 -149.53186035 321.48931885 C-148.88994261 317.8843596 -148.24498031 314.27995374 -147.59925842 310.67567444 C-146.16215951 302.65040744 -144.75335091 294.62037672 -143.36077881 286.58728027 C-142.89933412 283.93060078 -142.43529028 281.27438114 -141.97119141 278.61816406 C-137.45448077 252.73026046 -133.22123493 226.81782593 -129.3828125 200.8203125 C-125.72681461 176.06540941 -121.77131673 151.38149843 -117.39709473 126.7432251 C-116.95067884 124.22557702 -116.50775313 121.70733477 -116.06542969 119.18896484 C-115.39165889 115.36198904 -114.70658016 111.53722981 -114.0105896 107.7142334 C-113.64713643 105.71173238 -113.29082801 103.7079386 -112.93481445 101.70410156 C-112.715271 100.52428711 -112.49572754 99.34447266 -112.26953125 98.12890625 C-112.08479248 97.11884521 -111.90005371 96.10878418 -111.7097168 95.06811523 C-110.80947132 91.6847909 -109.87941205 89.13248593 -107.9453125 86.1953125 C-103.28772608 83.63456212 -98.41754795 82.44266206 -93.2421875 81.3984375 C-92.50234116 81.24389099 -91.76249481 81.08934448 -91.00022888 80.93011475 C-88.5670369 80.4260086 -86.13149223 79.93476189 -83.6953125 79.4453125 C-82.85803619 79.27467285 -82.02075989 79.1040332 -81.15811157 78.92822266 C-63.24480668 75.28625716 -45.22968599 72.29607033 -27.17578125 69.4453125 C-26.3692662 69.3175946 -25.56275116 69.18987671 -24.73179626 69.05828857 C-19.18883164 68.1953125 -19.18883164 68.1953125 -16.9453125 68.1953125 C-16.21446444 64.13311328 -15.48596119 60.07049639 -14.7578125 56.0078125 C-14.53367676 54.76088623 -14.30954102 53.51395996 -14.07861328 52.22924805 C-12.8842621 45.55696727 -11.716452 38.88199492 -10.60546875 32.1953125 C-10.38979248 30.90778076 -10.17411621 29.62024902 -9.9519043 28.29370117 C-9.53980669 25.82350495 -9.13344964 23.35234218 -8.73364258 20.88012695 C-5.32519649 0.53465828 -5.32519649 0.53465828 0 0 Z " fill="#111F33" transform="translate(572.9453125,428.8046875)"/>
<path d="M0 0 C1.85625 0.0309375 1.85625 0.0309375 3.75 0.0625 C5.10648352 7.70792361 6.46019164 15.35383684 7.8125 23 C8.11820419 24.7281041 8.11820419 24.7281041 8.43008423 26.49111938 C11.00595754 41.06169674 13.54458958 55.63756419 16.01089478 70.2270813 C18.5511351 85.24991611 21.23099938 100.23487028 24.078125 115.203125 C25.41030399 122.20807062 26.70163361 129.22022034 27.984375 136.234375 C28.18100739 137.30905029 28.37763977 138.38372559 28.58023071 139.4909668 C29.3698459 143.80860628 30.15903467 148.12632033 30.94525146 152.44458008 C31.49590864 155.46852793 32.04838942 158.49213645 32.6015625 161.515625 C32.77803314 162.4842749 32.95450378 163.4529248 33.13632202 164.45092773 C34.02068966 169.26389834 34.94547514 174.06371361 35.94824219 178.85351562 C36.13921478 179.77138855 36.33018738 180.68926147 36.52694702 181.63494873 C36.88946865 183.36128554 37.25948345 185.08607237 37.63833618 186.80889893 C39.03244194 193.44325604 39.03244194 193.44325604 37.75 197.0625 C29.48239095 202.42574994 17.0222387 203.08754277 7.48892212 204.81066895 C-11.60635926 208.27127582 -30.45829119 212.20517746 -49.25 217.0625 C-74.1906671 223.47176356 -74.1906671 223.47176356 -82.25 224.0625 C-83.90804571 222.40445429 -83.38002212 220.44300978 -83.3828125 218.1640625 C-83.38410156 217.12507812 -83.38539063 216.08609375 -83.38671875 215.015625 C-83.38285156 213.91734375 -83.37898438 212.8190625 -83.375 211.6875 C-83.37886719 210.65882813 -83.38273437 209.63015625 -83.38671875 208.5703125 C-83.37475764 198.71435882 -82.82335731 188.89838594 -82.25 179.0625 C-81.25186279 178.83699463 -80.25372559 178.61148926 -79.2253418 178.37915039 C-55.45923622 172.99917806 -31.81366259 167.27000039 -8.25 161.0625 C-6.21251696 143.8670629 -4.5423409 126.67821978 -3.31469727 109.40600586 C-3.05979156 105.83707919 -2.79300838 102.2691655 -2.52539062 98.70117188 C-1.09381853 80.90093745 -1.09381853 80.90093745 -1.25 63.0625 C-3.00147122 61.31102878 -5.35869977 61.85839385 -7.7421875 61.828125 C-16.1317676 61.89676078 -24.14865707 63.31299733 -32.375 64.8125 C-33.93038385 65.08741664 -35.48588624 65.36166341 -37.04150391 65.63525391 C-46.00809826 67.22581113 -54.9552052 68.90614698 -63.83251953 70.94433594 C-67.36384686 71.74475866 -70.62308373 72.34776308 -74.25 72.0625 C-74.58 71.7325 -74.91 71.4025 -75.25 71.0625 C-75.182707 69.07143019 -75.04268228 67.08279352 -74.875 65.09765625 C-74.43565107 59.54453922 -74.05535024 53.99565042 -73.75 48.43359375 C-73.66671175 46.95247142 -73.58337811 45.47135165 -73.5 43.99023438 C-73.37339383 41.72591265 -73.24791286 39.4615469 -73.125 37.19702148 C-73.00321069 34.96318674 -72.87695381 32.72964013 -72.75 30.49609375 C-72.6778125 29.18697021 -72.605625 27.87784668 -72.53125 26.52905273 C-72.29510252 23.61841209 -71.90419188 20.90312382 -71.25 18.0625 C-58.48741995 14.48233728 -45.69557377 11.02028526 -32.88574219 7.61328125 C-29.82981053 6.80048074 -26.77425256 5.98628694 -23.71875 5.171875 C-21.76304181 4.65096291 -19.80731342 4.13012666 -17.8515625 3.609375 C-16.94435455 3.36773621 -16.03714661 3.12609741 -15.10244751 2.87713623 C-14.25991425 2.6531012 -13.41738098 2.42906616 -12.54931641 2.19824219 C-11.44494736 1.90442657 -11.44494736 1.90442657 -10.31826782 1.60467529 C-9.63573944 1.42575745 -8.95321106 1.2468396 -8.25 1.0625 C-7.58898285 0.87536438 -6.9279657 0.68822876 -6.24691772 0.49542236 C-4.10271083 0.0305684 -2.19078084 -0.03651301 0 0 Z " fill="#111F32" transform="translate(347.25,288.9375)"/>
<path d="M0 0 C-2.31015478 21.03456725 -5.77185401 41.87965945 -9.19555664 62.75512695 C-10.01399415 67.74596935 -10.82415704 72.738112 -11.63201237 77.73067665 C-15.66065597 102.59915995 -20.02323079 127.38562917 -24.71695232 152.13702106 C-26.12168839 159.57779275 -27.42037807 167.03462442 -28.6875 174.5 C-34.68520935 209.68759358 -34.68520935 209.68759358 -38.125 224.9375 C-38.34458374 225.94828613 -38.34458374 225.94828613 -38.56860352 226.97949219 C-39.42719168 230.61620246 -40.51116031 233.19478238 -43 236 C-47.23425054 223.29724837 -43.42226365 205.31361114 -42.6875 192.1875 C-42.55130717 189.70207836 -42.41532422 187.21664522 -42.27954102 184.73120117 C-41.38292528 168.42192426 -40.42472638 152.11651511 -39.4375 135.8125 C-39.37461792 134.77344513 -39.31173584 133.73439026 -39.24694824 132.66384888 C-39.12164513 130.59337858 -38.99633999 128.5229084 -38.87103271 126.45243835 C-37.15069095 98.00887282 -35.7229677 69.57850253 -34.69702148 41.10009766 C-34.27178367 29.38910473 -33.76270834 17.69419308 -33 6 C-27.13928318 3.59508517 -21.63273781 2.22136192 -15.375 1.3125 C-14.55515625 1.18294922 -13.7353125 1.05339844 -12.890625 0.91992188 C-8.53842804 0.25869581 -4.41307357 -0.05582661 0 0 Z " fill="#111E30" transform="translate(433,601)"/>
<path d="M0 0 C1.32 0.33 2.64 0.66 4 1 C5.77911825 14.14411797 7.3839731 27.29446476 8.79736328 40.48291016 C9.89156469 50.47338274 11.26021032 60.41630202 12.73022461 70.35791016 C13.58890874 76.30793323 14.21498971 81.98770145 14 88 C13.25427734 88.17128418 12.50855469 88.34256836 11.74023438 88.51904297 C8.32664173 89.30357598 4.91331933 90.08927874 1.5 90.875 C0.32695313 91.14441406 -0.84609375 91.41382813 -2.0546875 91.69140625 C-8.05147413 93.07268856 -14.03687668 94.47969876 -20 96 C-19.26894009 89.34437088 -18.05816128 82.84018503 -16.7421875 76.27734375 C-16.51813232 75.15023987 -16.29407715 74.02313599 -16.06323242 72.86187744 C-15.33750539 69.21967087 -14.60675734 65.5784995 -13.875 61.9375 C-13.62800354 60.70456207 -13.38100708 59.47162415 -13.12652588 58.20132446 C-10.17830296 43.50010251 -7.19175263 28.8105727 -3.875 14.1875 C-3.59253418 12.94025146 -3.31006836 11.69300293 -3.01904297 10.40795898 C-1.14480978 2.28961956 -1.14480978 2.28961956 0 0 Z " fill="#F8F1DE" transform="translate(611,604)"/>
<path d="M0 0 C0.66 0 1.32 0 2 0 C2.02916504 0.70229736 2.05833008 1.40459473 2.08837891 2.12817383 C2.9455804 21.22741069 4.79419235 40.14262608 7.0625 59.125 C7.19819397 60.26248688 7.33388794 61.39997375 7.47369385 62.57192993 C7.86577079 65.84264909 8.26157353 69.11288014 8.66015625 72.3828125 C8.77991318 73.36598953 8.8996701 74.34916656 9.02305603 75.36213684 C9.48112437 79.06376495 9.95669899 82.74348821 10.57763672 86.421875 C11.14874905 89.9079711 11.10684446 93.35473232 11.0625 96.875 C11.05798828 97.56335938 11.05347656 98.25171875 11.04882812 98.9609375 C11.03716336 100.64066335 11.01923271 102.32034375 11 104 C7.62581286 104.81590057 4.25051419 105.6271087 0.875 106.4375 C-0.07632813 106.66759766 -1.02765625 106.89769531 -2.0078125 107.13476562 C-6.65584687 108.24835719 -11.2662196 109.30666853 -16 110 C-15.36406215 101.04862393 -14.07266847 92.22197673 -12.73304939 83.35570908 C-12.33882155 80.74620822 -11.94854862 78.13614082 -11.55918884 75.52590942 C-10.73045238 69.9750802 -9.89669416 64.42501122 -9.0625 58.875 C-8.09786076 52.45419442 -7.13538805 46.03307374 -6.17700005 39.61133194 C-5.79706036 37.07175642 -5.41390858 34.53268053 -5.03053284 31.99362183 C-3.74222619 23.39893933 -2.56190929 14.80991999 -1.65708256 6.16522026 C-1.10546209 1.10546209 -1.10546209 1.10546209 0 0 Z " fill="#F8F2DF" transform="translate(810,482)"/>
<path d="M0 0 C1.09570312 0.00902344 2.19140625 0.01804687 3.3203125 0.02734375 C4.16335938 0.03894531 5.00640625 0.05054688 5.875 0.0625 C3.95807171 16.10992829 0.71059322 31.80170697 -2.72354126 47.57589722 C-4.2073328 54.40423516 -5.62206849 61.24586965 -7.02151489 68.09191895 C-7.43857792 70.13026821 -7.85751231 72.16822363 -8.27709961 74.20605469 C-9.64832007 80.86644746 -11.01649669 87.52742927 -12.375 94.19042969 C-13.49832891 99.69869346 -14.62849947 105.20552178 -15.76229858 110.7116394 C-16.2108448 112.89614563 -16.65700904 115.08114236 -17.10073853 117.26663208 C-17.72382708 120.33398933 -18.35513068 123.39955002 -18.98828125 126.46484375 C-19.2675647 127.85459915 -19.2675647 127.85459915 -19.55249023 129.27243042 C-19.73021973 130.1247525 -19.90794922 130.97707458 -20.09106445 131.85522461 C-20.24315872 132.59872665 -20.39525299 133.3422287 -20.55195618 134.10826111 C-21.125 136.0625 -21.125 136.0625 -23.125 139.0625 C-22.60529205 127.65920344 -21.74123302 116.35338386 -20.44420242 105.01251221 C-20.15292215 102.46507017 -19.86809586 99.91696787 -19.58456421 97.36865234 C-18.9785773 91.93263953 -18.3646125 86.49754321 -17.75 81.0625 C-17.04482235 74.81897751 -16.34229972 68.57516938 -15.64620209 62.33062744 C-15.4502593 60.57288076 -15.25381504 58.81518991 -15.05686188 57.05755615 C-14.01266651 47.71311792 -13.03118918 38.36933851 -12.23730469 29 C-12.1696887 28.20435638 -12.10207272 27.40871277 -12.03240776 26.58895874 C-11.7176984 22.84887387 -11.41574972 19.10828098 -11.13198853 15.36572266 C-11.02704071 14.0616748 -10.9220929 12.75762695 -10.81396484 11.4140625 C-10.72819183 10.27791504 -10.64241882 9.14176758 -10.55404663 7.97119141 C-10.14523099 5.19965454 -9.64274404 3.39890026 -8.125 1.0625 C-5.36047967 -0.31976016 -3.0788637 -0.03275387 0 0 Z " fill="#121E2E" transform="translate(536.125,583.9375)"/>
<path d="M0 0 C0.99 0.495 0.99 0.495 2 1 C2.87418795 21.38630971 3.13253475 41.72116635 3.06866455 62.12280273 C3.05816579 65.85204464 3.05381204 69.58129425 3.04882812 73.31054688 C3.03831683 80.54038428 3.02140822 87.77018574 3 95 C2.67 95 2.34 95 2 95 C1.67 97.31 1.34 99.62 1 102 C0.67 102 0.34 102 0 102 C0 68.34 0 34.68 0 0 Z " fill="#F0EAD7" transform="translate(168,239)"/>
<path d="M0 0 C0.66 0 1.32 0 2 0 C2.66 11.88 3.32 23.76 4 36 C3.01 36.495 3.01 36.495 2 37 C1.66179834 35.4176994 1.32964061 33.83410625 1 32.25 C0.7215625 30.92742188 0.7215625 30.92742188 0.4375 29.578125 C0 27 0 27 0 23 C-0.66 23 -1.32 23 -2 23 C-2.33 26.3 -2.66 29.6 -3 33 C-3.33 33 -3.66 33 -4 33 C-4.17082793 25.8697907 -3.52452693 19.06083021 -2.5625 12 C-2.42779297 10.95199219 -2.29308594 9.90398437 -2.15429688 8.82421875 C-1.13160878 1.13160878 -1.13160878 1.13160878 0 0 Z " fill="#F8F4E7" transform="translate(810,482)"/>
<path d="M0 0 C0.33 0 0.66 0 1 0 C1 5.28 1 10.56 1 16 C1.33 14.35 1.66 12.7 2 11 C2.33 11 2.66 11 3 11 C2.48464687 19.76779915 0.85003177 28.12770003 -1.0625 36.6875 C-1.48499023 38.61625977 -1.48499023 38.61625977 -1.91601562 40.58398438 C-2.60472242 43.72402044 -3.29949169 46.8625796 -4 50 C-4.33 50 -4.66 50 -5 50 C-4.57783931 38.99470741 -3.67174999 28.0763828 -2.5 17.125 C-2.36940186 15.89491211 -2.23880371 14.66482422 -2.10424805 13.39746094 C-1.04648216 3.75363719 -1.04648216 3.75363719 0 0 Z " fill="#101217" transform="translate(518,673)"/>
<path d="M0 0 C14.85 0 29.7 0 45 0 C45.495 1.485 45.495 1.485 46 3 C30.49 3 14.98 3 -1 3 C-0.67 2.01 -0.34 1.02 0 0 Z " fill="#1D2636" transform="translate(493,158)"/>
<path d="M0 0 C0.33 0 0.66 0 1 0 C1 12.54 1 25.08 1 38 C0.34 38 -0.32 38 -1 38 C-2.01973129 34.94080612 -2.11533602 32.87581975 -2.09765625 29.67578125 C-2.09443359 28.64775391 -2.09121094 27.61972656 -2.08789062 26.56054688 C-2.07951172 25.48869141 -2.07113281 24.41683594 -2.0625 23.3125 C-2.05798828 22.22904297 -2.05347656 21.14558594 -2.04882812 20.02929688 C-2.03703743 17.35280915 -2.02058063 14.67643223 -2 12 C-1.67 12 -1.34 12 -1 12 C-0.67 8.04 -0.34 4.08 0 0 Z " fill="#202A3A" transform="translate(172,322)"/>
<path d="M0 0 C0.33 0 0.66 0 1 0 C1.268125 0.969375 1.53625 1.93875 1.8125 2.9375 C2.204375 3.948125 2.59625 4.95875 3 6 C3.99 6.33 4.98 6.66 6 7 C5.71848084 9.12636813 5.42446737 11.25108528 5.125 13.375 C4.96257813 14.55835938 4.80015625 15.74171875 4.6328125 16.9609375 C4 20 4 20 2 22 C1.34 22.99 0.68 23.98 0 25 C0 16.75 0 8.5 0 0 Z " fill="#202B38" transform="translate(518,667)"/>
<path d="M0 0 C0.66 0 1.32 0 2 0 C3.56355621 19.37692873 3.56355621 19.37692873 3 24 C2.34 24.66 1.68 25.32 1 26 C0.67 22.04 0.34 18.08 0 14 C-0.66 14.99 -1.32 15.98 -2 17 C-1.85978195 14.35375716 -1.71310224 11.70815422 -1.5625 9.0625 C-1.52318359 8.30775391 -1.48386719 7.55300781 -1.44335938 6.77539062 C-1.11328125 1.11328125 -1.11328125 1.11328125 0 0 Z " fill="#E7E7E0" transform="translate(810,482)"/>
<path d="M0 0 C0.33 0 0.66 0 1 0 C1 5.28 1 10.56 1 16 C1.33 14.35 1.66 12.7 2 11 C2.33 11 2.66 11 3 11 C2.88570603 12.77155654 2.75816963 14.54226229 2.625 16.3125 C2.55539062 17.29863281 2.48578125 18.28476562 2.4140625 19.30078125 C2 22 2 22 0 25 C-0.99 25 -1.98 25 -3 25 C-2.6925646 21.58285781 -2.37816912 18.16639063 -2.0625 14.75 C-1.97548828 13.78191406 -1.88847656 12.81382812 -1.79882812 11.81640625 C-1.71181641 10.88183594 -1.62480469 9.94726562 -1.53515625 8.984375 C-1.456604 8.12553711 -1.37805176 7.26669922 -1.29711914 6.38183594 C-1.02290097 4.18358411 -0.58933034 2.13281455 0 0 Z " fill="#10141D" transform="translate(518,673)"/>
<path d="M0 0 C5.86646732 1.4116187 9.52068049 4.55242282 14 8.375 C18.53031629 12.19000319 22.99421566 15.82445556 28 19 C27.01 19.33 26.02 19.66 25 20 C23.31762695 18.99951172 23.31762695 18.99951172 21.48828125 17.4296875 C20.81216797 16.8625 20.13605469 16.2953125 19.43945312 15.7109375 C18.73755859 15.10507812 18.03566406 14.49921875 17.3125 13.875 C12.10553362 9.43014862 6.91868506 5.45942235 1 2 C0.67 3.98 0.34 5.96 0 8 C-0.33 8 -0.66 8 -1 8 C-1.04241723 5.66705225 -1.04092937 3.33297433 -1 1 C-0.67 0.67 -0.34 0.34 0 0 Z " fill="#0C1019" transform="translate(778,315)"/>
<path d="M0 0 C0.33 0 0.66 0 1 0 C1.91696463 4.71793092 2.21442264 9.33095131 2.25 14.125 C2.270625 14.82753906 2.29125 15.53007813 2.3125 16.25390625 C2.34439502 20.4720222 2.00557066 22.94697296 -1 26 C-1.02716089 22.97910522 -1.04691657 19.95845871 -1.0625 16.9375 C-1.07087891 16.08994141 -1.07925781 15.24238281 -1.08789062 14.36914062 C-1.10683006 9.4638278 -0.83326345 4.83555245 0 0 Z " fill="#202A3A" transform="translate(373,770)"/>
<path d="M0 0 C0.639375 0.66 1.27875 1.32 1.9375 2 C3.64082319 4.11602431 3.64082319 4.11602431 5 4 C4.91231752 5.5843317 4.80412671 7.16753567 4.6875 8.75 C4.62949219 9.63171875 4.57148438 10.5134375 4.51171875 11.421875 C3.9358819 14.32303774 2.92403852 15.79225607 1 18 C-0.2062252 14.38132441 -0.10816918 11.07493749 -0.0625 7.3125 C-0.05798828 6.61060547 -0.05347656 5.90871094 -0.04882812 5.18554688 C-0.03706927 3.45699462 -0.01913454 1.72848635 0 0 Z " fill="#232931" transform="translate(389,819)"/>
<path d="M0 0 C0.66 0 1.32 0 2 0 C1.34 6.6 0.68 13.2 0 20 C-0.66 20 -1.32 20 -2 20 C-2.05392397 17.22890693 -2.09363455 14.45886182 -2.125 11.6875 C-2.14175781 10.90181641 -2.15851562 10.11613281 -2.17578125 9.30664062 C-2.18544922 8.1706543 -2.18544922 8.1706543 -2.1953125 7.01171875 C-2.20578613 6.31522217 -2.21625977 5.61872559 -2.22705078 4.90112305 C-2 3 -2 3 0 0 Z " fill="#111926" transform="translate(661,536)"/>
<path d="M0 0 C0.99 0.33 1.98 0.66 3 1 C3.12036664 6.77759884 2.8320582 12.27959989 2 18 C1.01 17.67 0.02 17.34 -1 17 C-0.67 11.39 -0.34 5.78 0 0 Z " fill="#FAEECF" transform="translate(280,716)"/>
<path d="M0 0 C0.66 0.33 1.32 0.66 2 1 C0.89644911 8.55607786 -0.59343789 15.74822618 -3 23 C-3.66 23 -4.32 23 -5 23 C-3.69951304 15.22767795 -1.99548103 7.62273755 0 0 Z " fill="#E7E6DF" transform="translate(742,559)"/>
<path d="M0 0 C1.32 0 2.64 0 4 0 C4.84098656 4.01804691 5.05404945 7.01803543 4 11 C2.68 10.67 1.36 10.34 0 10 C0 6.7 0 3.4 0 0 Z " fill="#EEEDE2" transform="translate(419,327)"/>
<path d="M0 0 C0 6.93 0 13.86 0 21 C-0.33 20.01 -0.66 19.02 -1 18 C-1.66 18 -2.32 18 -3 18 C-3 12.39 -3 6.78 -3 1 C-1 0 -1 0 0 0 Z " fill="#E1DCCD" transform="translate(382,656)"/>
<path d="M0 0 C0.33 0 0.66 0 1 0 C1 7.92 1 15.84 1 24 C0.67 24 0.34 24 0 24 C-1.73955334 17.56986533 -2.24991456 11.65050424 -2 5 C-1.67 5 -1.34 5 -1 5 C-0.67 3.35 -0.34 1.7 0 0 Z " fill="#1B2737" transform="translate(266,482)"/>
<path d="M0 0 C-5.33596646 2.84906806 -10.59228087 4.59136961 -16.5625 3.125 C-17.366875 2.75375 -18.17125 2.3825 -19 2 C-19 1.67 -19 1.34 -19 1 C-12.31349436 -0.48725585 -6.76106962 -1.27567351 0 0 Z " fill="#E6E2D4" transform="translate(184,640)"/>
<path d="M0 0 C0.33 0.99 0.66 1.98 1 3 C-6.31608526 5.43869509 -15.46947483 4.43438575 -23 3 C-23 2.67 -23 2.34 -23 2 C-21.75863281 1.93941406 -20.51726563 1.87882813 -19.23828125 1.81640625 C-17.59634423 1.73196377 -15.95441768 1.64731764 -14.3125 1.5625 C-13.08756836 1.50352539 -13.08756836 1.50352539 -11.83789062 1.44335938 C-7.80344189 1.23101997 -3.94252691 0.95552078 0 0 Z " fill="#E2E1DB" transform="translate(596,218)"/>
<path d="M0 0 C0 4.62 0 9.24 0 14 C-0.99 14.495 -0.99 14.495 -2 15 C-3.38226016 12.23547967 -3.09525387 9.9538637 -3.0625 6.875 C-3.05347656 5.77929688 -3.04445312 4.68359375 -3.03515625 3.5546875 C-3.02355469 2.71164062 -3.01195312 1.86859375 -3 1 C-1 0 -1 0 0 0 Z " fill="#1E2734" transform="translate(160,621)"/>
<path d="M0 0 C4.62 0 9.24 0 14 0 C14 0.33 14 0.66 14 1 C16.97 1.495 16.97 1.495 20 2 C20 2.33 20 2.66 20 3 C14.06 3 8.12 3 2 3 C2 2.34 2 1.68 2 1 C1.34 0.67 0.68 0.34 0 0 Z " fill="#CAC9BD" transform="translate(612,230)"/>
<path d="M0 0 C0.33 0 0.66 0 1 0 C1.26404456 6.86515862 0.25841946 13.25846717 -1 20 C-1.33 20 -1.66 20 -2 20 C-2.05392397 17.22890693 -2.09363455 14.45886182 -2.125 11.6875 C-2.14175781 10.90181641 -2.15851563 10.11613281 -2.17578125 9.30664062 C-2.18544922 8.1706543 -2.18544922 8.1706543 -2.1953125 7.01171875 C-2.20578613 6.31522217 -2.21625977 5.61872559 -2.22705078 4.90112305 C-2 3 -2 3 0 0 Z " fill="#FBF9F3" transform="translate(428,285)"/>
<path d="M0 0 C1.07894531 0.03480469 2.15789062 0.06960938 3.26953125 0.10546875 C4.35621094 0.13253906 5.44289063 0.15960937 6.5625 0.1875 C7.80966797 0.23970703 7.80966797 0.23970703 9.08203125 0.29296875 C9.41203125 1.28296875 9.74203125 2.27296875 10.08203125 3.29296875 C4.80203125 3.29296875 -0.47796875 3.29296875 -5.91796875 3.29296875 C-2.91796875 0.29296875 -2.91796875 0.29296875 0 0 Z " fill="#E6E0CE" transform="translate(465.91796875,853.70703125)"/>
<path d="M0 0 C2 3 2 3 1.625 6.1875 C1.41875 7.115625 1.2125 8.04375 1 9 C2.11375 8.79375 3.2275 8.5875 4.375 8.375 C5.57125 8.25125 6.7675 8.1275 8 8 C8.66 8.66 9.32 9.32 10 10 C6.37 10.33 2.74 10.66 -1 11 C-1.14285714 3.57142857 -1.14285714 3.57142857 0 0 Z " fill="#20242C" transform="translate(498,844)"/>
<path d="M0 0 C0.33 0 0.66 0 1 0 C1.33 6.27 1.66 12.54 2 19 C1.01 19.33 0.02 19.66 -1 20 C-1.11381955 13.23405981 -0.88021369 6.71162938 0 0 Z " fill="#EAE3CD" transform="translate(298,685)"/>
<path d="M0 0 C1.32 0.33 2.64 0.66 4 1 C4 2.32 4 3.64 4 5 C1.5 7.25 1.5 7.25 -1 9 C-2.25541557 5.23375329 -1.37061958 3.62811066 0 0 Z " fill="#E9E6DA" transform="translate(611,604)"/>
<path d="M0 0 C0.33 0 0.66 0 1 0 C0.67 3.63 0.34 7.26 0 11 C-0.66 11 -1.32 11 -2 11 C-2.33 12.32 -2.66 13.64 -3 15 C-3 11.37 -3 7.74 -3 4 C-2.01 4 -1.02 4 0 4 C0 2.68 0 1.36 0 0 Z " fill="#050B16" transform="translate(518,694)"/>
<path d="M0 0 C3.29037459 3.29037459 3.15490172 6.46969952 3.328125 10.96484375 C3 13 3 13 0 17 C0 11.39 0 5.78 0 0 Z " fill="#F2ECD8" transform="translate(397,611)"/>
<path d="M0 0 C0.33 0 0.66 0 1 0 C1 6.27 1 12.54 1 19 C-2.67952474 14.09396701 -2.29124516 12.82490317 -2 7 C-1.67 7 -1.34 7 -1 7 C-0.67 4.69 -0.34 2.38 0 0 Z " fill="#1C2738" transform="translate(651,379)"/>
<path d="M0 0 C0.99 0 1.98 0 3 0 C3.10349817 6.41688675 2.74507544 12.62694402 2 19 C1.67 19 1.34 19 1 19 C0.67 12.73 0.34 6.46 0 0 Z " fill="#242F40" transform="translate(306,625)"/>
<path d="M0 0 C1.41623216 -0.05447047 2.83308191 -0.09300508 4.25 -0.125 C5.03890625 -0.14820313 5.8278125 -0.17140625 6.640625 -0.1953125 C9.2849707 0.02359029 10.82251879 0.48353987 13 2 C13.75 5.625 13.75 5.625 14 9 C13.34 9 12.68 9 12 9 C11.34 7.02 10.68 5.04 10 3 C6.7 2.34 3.4 1.68 0 1 C0 0.67 0 0.34 0 0 Z " fill="#0A0E17" transform="translate(592,164)"/>
<path d="M0 0 C0.66 0.66 1.32 1.32 2 2 C1.9765625 5.2578125 1.9765625 5.2578125 1.625 9.125 C1.51414062 10.40632813 1.40328125 11.68765625 1.2890625 13.0078125 C1.19367188 13.99523437 1.09828125 14.98265625 1 16 C0.67 16 0.34 16 0 16 C-0.19441368 13.7089095 -0.38033135 11.41709663 -0.5625 9.125 C-0.71912109 7.21074219 -0.71912109 7.21074219 -0.87890625 5.2578125 C-1 2 -1 2 0 0 Z " fill="#1E2835" transform="translate(434,253)"/>
<path d="M0 0 C0.99 0 1.98 0 3 0 C2.67 2.97 2.34 5.94 2 9 C1.01 9 0.02 9 -1 9 C-0.67 6.03 -0.34 3.06 0 0 Z " fill="#E8E4D6" transform="translate(597,667)"/>
<path d="M0 0 C2.32590854 3.63423209 2.16265833 6.77088331 2 11 C1.67 11 1.34 11 1 11 C0.67 12.65 0.34 14.3 0 16 C-0.33 16 -0.66 16 -1 16 C-1.02692484 13.70839681 -1.04636124 11.41670454 -1.0625 9.125 C-1.07410156 7.84882813 -1.08570313 6.57265625 -1.09765625 5.2578125 C-1 2 -1 2 0 0 Z " fill="#1D2839" transform="translate(709,307)"/>
<path d="M0 0 C5.28 0 10.56 0 16 0 C15.01 1.485 15.01 1.485 14 3 C10.875 3.1875 10.875 3.1875 8 3 C8 2.67 8 2.34 8 2 C5.36 1.67 2.72 1.34 0 1 C0 0.67 0 0.34 0 0 Z " fill="#F0EADB" transform="translate(530,156)"/>
<path d="M0 0 C2.31 0 4.62 0 7 0 C7 2.64 7 5.28 7 8 C5 5 5 5 5 3 C3.35 3 1.7 3 0 3 C0 2.01 0 1.02 0 0 Z " fill="#ECE9DB" transform="translate(301,611)"/>
<path d="M0 0 C0.33 0.66 0.66 1.32 1 2 C1.66 2 2.32 2 3 2 C3.08096803 3.45742463 3.13917774 4.91612807 3.1875 6.375 C3.22230469 7.18710937 3.25710937 7.99921875 3.29296875 8.8359375 C3.19628906 9.55007813 3.09960938 10.26421875 3 11 C2.01 11.66 1.02 12.32 0 13 C0 8.71 0 4.42 0 0 Z " fill="#EFEAD7" transform="translate(162,488)"/>
<path d="M0 0 C1.89714754 3.79429508 2.2098102 4.70417181 2 8.625 C1.83286503 10.92223499 1.83286503 10.92223499 2 13 C2.66 13.66 3.32 14.32 4 15 C2.35 15 0.7 15 -1 15 C-0.67 10.05 -0.34 5.1 0 0 Z " fill="#272A31" transform="translate(468,482)"/>
<path d="M0 0 C0.66 0 1.32 0 2 0 C3.17051429 2.34102859 3.1992246 3.89352953 3.25 6.5 C3.27578125 7.2940625 3.3015625 8.088125 3.328125 8.90625 C3.21984375 9.5971875 3.1115625 10.288125 3 11 C2.01 11.66 1.02 12.32 0 13 C0 8.71 0 4.42 0 0 Z " fill="#EAE6D5" transform="translate(718,392)"/>
<path d="M0 0 C2.40355927 3.6053389 2.75085268 6.79361025 2 11 C0.48046875 13.25390625 0.48046875 13.25390625 -1 15 C-1.02693575 12.87506859 -1.04636628 10.75004088 -1.0625 8.625 C-1.07410156 7.44164062 -1.08570313 6.25828125 -1.09765625 5.0390625 C-1 2 -1 2 0 0 Z " fill="#1E2939" transform="translate(774,350)"/>
<path d="M0 0 C0.33 0 0.66 0 1 0 C1 4.29 1 8.58 1 13 C0.01 12.67 -0.98 12.34 -2 12 C-2.28571429 3.42857143 -2.28571429 3.42857143 0 0 Z " fill="#1C2737" transform="translate(396,727)"/>
<path d="M0 0 C2.39763185 2.39763185 2.34280586 3.33273498 2.625 6.625 C2.69976562 7.44226563 2.77453125 8.25953125 2.8515625 9.1015625 C2.90054688 9.72804688 2.94953125 10.35453125 3 11 C2.01 11.66 1.02 12.32 0 13 C0 8.71 0 4.42 0 0 Z " fill="#F0E8D6" transform="translate(159,544)"/>
<path d="M0 0 C0 0.99 0 1.98 0 3 C-6.4 4.23076923 -6.4 4.23076923 -9.4375 3.0625 C-9.953125 2.711875 -10.46875 2.36125 -11 2 C-3.375 0 -3.375 0 0 0 Z " fill="#ECE9DF" transform="translate(311,440)"/>
<path d="M0 0 C0.33 0 0.66 0 1 0 C1 4.62 1 9.24 1 14 C-2 11 -2 11 -2.36328125 9.0625 C-2.34652344 8.381875 -2.32976562 7.70125 -2.3125 7 C-2.30863281 6.319375 -2.30476563 5.63875 -2.30078125 4.9375 C-2 3 -2 3 0 0 Z " fill="#EAE6D7" transform="translate(417,267)"/>
<path d="M0 0 C0.99 0.33 1.98 0.66 3 1 C3.08096803 2.45742463 3.13917774 3.91612807 3.1875 5.375 C3.22230469 6.18710937 3.25710937 6.99921875 3.29296875 7.8359375 C3.19628906 8.55007813 3.09960938 9.26421875 3 10 C2.01 10.66 1.02 11.32 0 12 C0 8.04 0 4.08 0 0 Z " fill="#F1C13B" transform="translate(142,539)"/>
<path d="M0 0 C0.66 0.33 1.32 0.66 2 1 C2.08131463 2.43655854 2.13933559 3.8744483 2.1875 5.3125 C2.23970703 6.51326172 2.23970703 6.51326172 2.29296875 7.73828125 C1.93801608 10.47851584 1.10633718 11.29171079 -1 13 C-1.02686553 11.02090602 -1.04633375 9.04171029 -1.0625 7.0625 C-1.07410156 5.96035156 -1.08570313 4.85820312 -1.09765625 3.72265625 C-1 1 -1 1 0 0 Z " fill="#212C3A" transform="translate(325,380)"/>
<path d="M0 0 C3 1 3 1 5 4 C4.67 4.99 4.34 5.98 4 7 C2.02 5.68 0.04 4.36 -2 3 C-1.34 2.01 -0.68 1.02 0 0 Z " fill="#F9ECC4" transform="translate(630,827)"/>
<path d="M0 0 C0.99 0 1.98 0 3 0 C2.67 2.97 2.34 5.94 2 9 C1.01 8.67 0.02 8.34 -1 8 C-0.67 5.36 -0.34 2.72 0 0 Z " fill="#1E2633" transform="translate(778,464)"/>
<path d="M0 0 C0.33 0 0.66 0 1 0 C1.2236337 1.41433206 1.42826476 2.83167618 1.625 4.25 C1.74101562 5.03890625 1.85703125 5.8278125 1.9765625 6.640625 C2.00319395 9.32152459 1.36592084 10.72694089 0 13 C-0.66 10.36 -1.32 7.72 -2 5 C-1.34 5 -0.68 5 0 5 C0 3.35 0 1.7 0 0 Z " fill="#202834" transform="translate(362,357)"/>
<path d="M0 0 C0.99 0 1.98 0 3 0 C2.67 2.64 2.34 5.28 2 8 C1.01 8 0.02 8 -1 8 C-0.67 5.36 -0.34 2.72 0 0 Z " fill="#1F2733" transform="translate(493,346)"/>
<path d="M0 0 C0.99 0.33 1.98 0.66 3 1 C2.34 4.3 1.68 7.6 1 11 C-1.26609984 6.46780033 -0.92735976 4.82227075 0 0 Z " fill="#1E2836" transform="translate(512,267)"/>
<path d="M0 0 C0.66 0.66 1.32 1.32 2 2 C1.9765625 4.1640625 1.9765625 4.1640625 1.625 6.625 C1.51414062 7.44226563 1.40328125 8.25953125 1.2890625 9.1015625 C1.19367188 9.72804688 1.09828125 10.35453125 1 11 C0.34 10.67 -0.32 10.34 -1 10 C-0.67 6.7 -0.34 3.4 0 0 Z " fill="#0C1420" transform="translate(426,739)"/>
<path d="M0 0 C0.33 0.99 0.66 1.98 1 3 C-2.3 3.33 -5.6 3.66 -9 4 C-9.33 4.99 -9.66 5.98 -10 7 C-9.67 5.35 -9.34 3.7 -9 2 C-2.25 0 -2.25 0 0 0 Z " fill="#242731" transform="translate(410,604)"/>
<path d="M0 0 C0.33 0 0.66 0 1 0 C1 3.96 1 7.92 1 12 C-2 9 -2 9 -2.3125 6 C-2 3 -2 3 0 0 Z " fill="#1B2837" transform="translate(724,369)"/>
<path d="M0 0 C0.33 0 0.66 0 1 0 C0.88557539 1.60495567 0.75805306 3.20898119 0.625 4.8125 C0.55539062 5.70582031 0.48578125 6.59914063 0.4140625 7.51953125 C0 10 0 10 -2 13 C-2.33 11.35 -2.66 9.7 -3 8 C-2.34 8 -1.68 8 -1 8 C-0.67 5.36 -0.34 2.72 0 0 Z " fill="#F9F8EF" transform="translate(531,698)"/>
<path d="M0 0 C0.33 0 0.66 0 1 0 C1 3.63 1 7.26 1 11 C0.01 10.34 -0.98 9.68 -2 9 C-2.43132515 4.94554358 -2.30019361 3.45029042 0 0 Z " fill="#F9EED1" transform="translate(146,546)"/>
<path d="M0 0 C0.33 0.66 0.66 1.32 1 2 C-5.0546875 2.9765625 -5.0546875 2.9765625 -7 3 C-7.66 2.34 -8.32 1.68 -9 1 C-6.04335481 -0.4783226 -3.25770263 -0.06032783 0 0 Z " fill="#151C27" transform="translate(334,515)"/>
<path d="M0 0 C3 3 3 3 3.375 6.0625 C3.25125 7.031875 3.1275 8.00125 3 9 C2.01 9.66 1.02 10.32 0 11 C0 7.37 0 3.74 0 0 Z " fill="#212A3B" transform="translate(772,367)"/>
<path d="M0 0 C2.9375 0.25 2.9375 0.25 4.9375 1.25 C4.9375 1.91 4.9375 2.57 4.9375 3.25 C1.3075 3.25 -2.3225 3.25 -6.0625 3.25 C-3.0625 0.25 -3.0625 0.25 0 0 Z " fill="#1E2A39" transform="translate(482.0625,158.75)"/>
<path d="M0 0 C0.33 0 0.66 0 1 0 C1 1.65 1 3.3 1 5 C0.67 5 0.34 5 0 5 C0 3.35 0 1.7 0 0 Z M-2 4 C-1.34 4.33 -0.68 4.66 0 5 C0 6.65 0 8.3 0 10 C-0.99 10 -1.98 10 -3 10 C-2.67 8.02 -2.34 6.04 -2 4 Z " fill="#EBE6D5" transform="translate(570,824)"/>
<path d="M0 0 C1.28485596 5.13942384 0.22194431 6.37835584 -2 11 C-2.66 11 -3.32 11 -4 11 C-4.33 10.01 -4.66 9.02 -5 8 C-4.01 8 -3.02 8 -2 8 C-1.34 5.36 -0.68 2.72 0 0 Z " fill="#13151C" transform="translate(711,672)"/>
<path d="M0 0 C1.45606519 4.52092968 0.27032841 7.51648796 -1 12 C-1.66 11.67 -2.32 11.34 -3 11 C-3 9.68 -3 8.36 -3 7 C-2.34 7 -1.68 7 -1 7 C-0.67 4.69 -0.34 2.38 0 0 Z " fill="#FAF8F0" transform="translate(767,515)"/>
<path d="M0 0 C0 0.66 0 1.32 0 2 C-3.375 2.625 -3.375 2.625 -7 3 C-7.66 2.34 -8.32 1.68 -9 1 C-6.04335481 -0.4783226 -3.25770263 -0.06032783 0 0 Z " fill="#131B26" transform="translate(359,510)"/>
<path d="M0 0 C0.33 0 0.66 0 1 0 C1 3.63 1 7.26 1 11 C0.01 10.34 -0.98 9.68 -2 9 C-2.43132515 4.94554358 -2.30019361 3.45029042 0 0 Z " fill="#202C3B" transform="translate(344,420)"/>
<path d="M0 0 C1.98 0 3.96 0 6 0 C5 2 5 2 2.1875 3.1875 C-0.85961076 3.96421451 -2.13749363 4.10096399 -5 3 C-3.35 2.67 -1.7 2.34 0 2 C0 1.34 0 0.68 0 0 Z " fill="#10141E" transform="translate(606,757)"/>
<path d="M0 0 C0.33 0 0.66 0 1 0 C1.29296875 6.0546875 1.29296875 6.0546875 1 8 C0.01 8.66 -0.98 9.32 -2 10 C-2.1953125 3.9453125 -2.1953125 3.9453125 -2 2 C-1.34 1.34 -0.68 0.68 0 0 Z " fill="#FBEFD0" transform="translate(144,577)"/>
<path d="M0 0 C4.60209225 -0.17700355 6.78370866 -0.10814567 11 2 C7.7 2.33 4.4 2.66 1 3 C0.67 2.01 0.34 1.02 0 0 Z " fill="#EAE7D7" transform="translate(637,505)"/>
<path d="M0 0 C2.64 0 5.28 0 8 0 C8.33 0.66 8.66 1.32 9 2 C6.04335481 3.4783226 3.25770263 3.06032783 0 3 C0 2.01 0 1.02 0 0 Z " fill="#232B38" transform="translate(571,429)"/>
<path d="M0 0 C2 2 2 2 2.3125 5 C2.209375 5.99 2.10625 6.98 2 8 C1.01 8.66 0.02 9.32 -1 10 C-1.02689216 8.52093108 -1.04634621 7.04172517 -1.0625 5.5625 C-1.07410156 4.73878906 -1.08570313 3.91507812 -1.09765625 3.06640625 C-1 1 -1 1 0 0 Z " fill="#212A39" transform="translate(708,324)"/>
<path d="M0 0 C0.33 0 0.66 0 1 0 C1.28571429 7.42857143 1.28571429 7.42857143 -1 11 C-1.33 8.69 -1.66 6.38 -2 4 C-1.34 4 -0.68 4 0 4 C0 2.68 0 1.36 0 0 Z " fill="#080E1A" transform="translate(404,764)"/>
<path d="M0 0 C0.33 0 0.66 0 1 0 C1 2.31 1 4.62 1 7 C0.34 7 -0.32 7 -1 7 C-1 8.65 -1 10.3 -1 12 C-1.33 12 -1.66 12 -2 12 C-2 9.36 -2 6.72 -2 4 C-1.34 4 -0.68 4 0 4 C0 2.68 0 1.36 0 0 Z " fill="#FBF7EB" transform="translate(802,546)"/>
<path d="M0 0 C2.1519437 3.22791555 2.20086443 4.28400809 2 8 C1.01 8 0.02 8 -1 8 C-0.67 5.36 -0.34 2.72 0 0 Z " fill="#EAE9DD" transform="translate(765,449)"/>
<path d="M0 0 C0.99 0.99 1.98 1.98 3 3 C3.66 2.34 4.32 1.68 5 1 C5 2.65 5 4.3 5 6 C4.01 6 3.02 6 2 6 C0 3 0 3 0 0 Z " fill="#E9E9E1" transform="translate(644,395)"/>
<path d="M0 0 C0.66 0 1.32 0 2 0 C2.33 2.31 2.66 4.62 3 7 C2.01 7.33 1.02 7.66 0 8 C0 5.36 0 2.72 0 0 Z " fill="#1E2936" transform="translate(370,822)"/>
<path d="M0 0 C0.33 0 0.66 0 1 0 C1.33 2.97 1.66 5.94 2 9 C1.01 9.33 0.02 9.66 -1 10 C-0.67 6.7 -0.34 3.4 0 0 Z " fill="#ECE7D7" transform="translate(417,772)"/>
<path d="M0 0 C0.33 0 0.66 0 1 0 C1.92470553 4.71599818 2.22923777 7.67265609 0 12 C-1.03159626 8.90521121 -0.97482862 7.47368607 -0.5625 4.3125 C-0.46066406 3.50425781 -0.35882812 2.69601562 -0.25390625 1.86328125 C-0.17011719 1.24839844 -0.08632813 0.63351562 0 0 Z " fill="#1E2632" transform="translate(734,653)"/>
<path d="M0 0 C0.78375 0.04125 1.5675 0.0825 2.375 0.125 C1.0625 1.625 1.0625 1.625 -0.625 3.125 C-1.615 3.125 -2.605 3.125 -3.625 3.125 C-3.955 4.445 -4.285 5.765 -4.625 7.125 C-4.75 4.75 -4.75 4.75 -4.625 2.125 C-2.625 0.125 -2.625 0.125 0 0 Z " fill="#080D18" transform="translate(686.625,518.875)"/>
<path d="M0 0 C-1.625 1.5625 -1.625 1.5625 -4 3 C-7.25 2.6875 -7.25 2.6875 -10 2 C-6.5980513 -0.09350689 -3.94727588 -0.17942163 0 0 Z " fill="#080E1C" transform="translate(320,518)"/>
<path d="M0 0 C-0.33 0.99 -0.66 1.98 -1 3 C-2.98 3 -4.96 3 -7 3 C-7.33 2.34 -7.66 1.68 -8 1 C-5.10765685 0.17361624 -3.11257569 0 0 0 Z " fill="#E8E5DB" transform="translate(331,498)"/>
</svg>
